<svg width="20" height="18" viewBox="0 0 20 18" fill="none" xmlns="http://www.w3.org/2000/svg">
<path d="M10.54 2.73633C12.598 0.597837 14.7643 0.40264 16.376 1.13965C18.035 1.89837 19.25 3.70319 19.25 5.85352C19.2499 8.05031 18.3505 9.744 17.0615 11.1953C15.7469 12.6754 14.0899 13.8423 12.5742 15.0361L12.5732 15.0371C12.0477 15.4523 11.578 15.8159 11.126 16.0801C10.6738 16.3443 10.3097 16.4648 10 16.4648C9.69054 16.4648 9.32644 16.3444 8.87402 16.0801C8.42171 15.8157 7.95177 15.4516 7.42578 15.0371H7.42676C5.91114 13.8419 4.25341 12.6749 2.93848 11.1943C1.64949 9.74293 0.750085 8.04964 0.75 5.85254C0.75 3.70178 1.96528 1.89805 3.62402 1.13965C5.23566 0.402974 7.40188 0.59775 9.45996 2.73633L10 3.29785L10.54 2.73633Z" stroke="white" stroke-width="1.5"/>
</svg>
