<svg width="17" height="17" viewBox="0 0 17 17" fill="none" xmlns="http://www.w3.org/2000/svg">
<path d="M15.8409 0.579545C15.8409 0.42584 15.902 0.278431 16.0107 0.169745C16.1193 0.0610592 16.2667 0 16.4205 0C16.5742 0 16.7216 0.0610592 16.8303 0.169745C16.9389 0.278431 17 0.42584 17 0.579545V16.4205C17 16.5742 16.9389 16.7216 16.8303 16.8303C16.7216 16.9389 16.5742 17 16.4205 17C16.2667 17 16.1193 16.9389 16.0107 16.8303C15.902 16.7216 15.8409 16.5742 15.8409 16.4205V0.579545ZM0 1.74173C0 0.338455 1.57714 -0.486818 2.73005 0.313727L12.3922 7.021C12.622 7.18047 12.81 7.39302 12.9401 7.64063C13.0702 7.88823 13.1387 8.16358 13.1397 8.44329C13.1406 8.723 13.0741 8.99883 12.9458 9.24734C12.8174 9.49586 12.6309 9.70974 12.4023 9.87082L2.74009 16.6785C1.58873 17.4899 0 16.6677 0 15.2575V1.74173Z" fill="white"/>
</svg>
