<svg width="11" height="14" viewBox="0 0 11 14" fill="none" xmlns="http://www.w3.org/2000/svg">
<path d="M0 13.4V0.6C0 0.44087 0.0632141 0.288258 0.175736 0.175736C0.288258 0.0632141 0.44087 0 0.6 0H3.4C3.55913 0 3.71174 0.0632141 3.82426 0.175736C3.93679 0.288258 4 0.44087 4 0.6V13.4C4 13.5591 3.93679 13.7117 3.82426 13.8243C3.71174 13.9368 3.55913 14 3.4 14H0.6C0.44087 14 0.288258 13.9368 0.175736 13.8243C0.0632141 13.7117 0 13.5591 0 13.4ZM7 13.4V0.6C7 0.44087 7.06321 0.288258 7.17574 0.175736C7.28826 0.0632141 7.44087 0 7.6 0H10.4C10.5591 0 10.7117 0.0632141 10.8243 0.175736C10.9368 0.288258 11 0.44087 11 0.6V13.4C11 13.5591 10.9368 13.7117 10.8243 13.8243C10.7117 13.9368 10.5591 14 10.4 14H7.6C7.44087 14 7.28826 13.9368 7.17574 13.8243C7.06321 13.7117 7 13.5591 7 13.4Z" fill="#55DF69"/>
</svg>
