<svg width="17" height="17" viewBox="0 0 17 17" fill="none" xmlns="http://www.w3.org/2000/svg">
<path d="M1.15909 0.579545C1.15909 0.42584 1.09803 0.278431 0.989347 0.169745C0.880661 0.0610592 0.733252 0 0.579546 0C0.42584 0 0.278431 0.0610592 0.169744 0.169745C0.06106 0.278431 0 0.42584 0 0.579545V16.4205C0 16.5742 0.06106 16.7216 0.169744 16.8303C0.278431 16.9389 0.42584 17 0.579546 17C0.733252 17 0.880661 16.9389 0.989347 16.8303C1.09803 16.7216 1.15909 16.5742 1.15909 16.4205V0.579545ZM17 1.74173C17 0.338455 15.4229 -0.486818 14.27 0.313727L4.60777 7.021C4.37797 7.18047 4.19003 7.39302 4.05991 7.64063C3.92979 7.88823 3.86133 8.16358 3.86034 8.44329C3.85936 8.723 3.92587 8.99883 4.05424 9.24734C4.18261 9.49586 4.36905 9.70974 4.59773 9.87082L14.2599 16.6785C15.4113 17.4899 17 16.6677 17 15.2575V1.74173Z" fill="white"/>
</svg>
