<svg width="17" height="15" viewBox="0 0 17 15" fill="none" xmlns="http://www.w3.org/2000/svg">
<path d="M15.6579 5.39651C15.9915 5.39652 16.3132 5.51339 16.5602 5.72433C16.8071 5.93527 16.9617 6.22515 16.9937 6.53744L17 6.6586V10.0242C17 10.9975 16.6014 11.9334 15.887 12.6377C15.1726 13.3419 14.1972 13.7604 13.1634 13.8063L12.9737 13.8105H5.42211L5.40421 14.073L5.39437 14.1908C5.34426 14.7958 4.72421 15.1752 4.20347 14.9186L3.92253 14.7772L3.59326 14.6014L3.41163 14.5013L3.01884 14.2749C2.73905 14.1087 2.46397 13.9356 2.19389 13.7558L1.84942 13.5202L1.56042 13.3141L1.43784 13.224C1.00032 12.8959 1.01732 12.2186 1.48258 11.8727L1.60426 11.7827L1.89058 11.5791L2.23058 11.3477L2.62247 11.0944C2.83278 10.9624 3.04576 10.8342 3.26132 10.7099L3.64247 10.4954L3.978 10.3178L4.26074 10.1748C4.777 9.92238 5.34068 10.2463 5.38989 10.8109L5.42389 11.2863H12.9737C13.3073 11.2863 13.629 11.1694 13.876 10.9585C14.1229 10.7475 14.2775 10.4576 14.3095 10.1454L14.3158 10.0242V6.6586C14.3158 6.32387 14.4572 6.00286 14.7089 5.76617C14.9606 5.52948 15.3019 5.39651 15.6579 5.39651ZM12.7965 0.0813999L13.0775 0.222755L13.4067 0.398607C13.4664 0.430019 13.5269 0.463394 13.5884 0.498733L13.9812 0.725069C14.261 0.891254 14.536 1.06436 14.8061 1.24421L15.1506 1.4798L15.4396 1.68594L15.5622 1.77597C15.9997 2.10412 15.9827 2.78144 15.5174 3.12726L15.3957 3.21729L15.1094 3.42091L14.7694 3.65229C14.433 3.87496 14.0893 4.08766 13.7387 4.29007L13.3575 4.50463L13.022 4.68216L12.7393 4.8252C12.223 5.07762 11.6593 4.75368 11.611 4.1891L11.5752 3.71371H4.02632C3.67037 3.71371 3.329 3.84668 3.0773 4.08337C2.82561 4.32006 2.68421 4.64108 2.68421 4.97581V8.3414C2.68421 8.67613 2.54281 8.99715 2.29112 9.23384C2.03942 9.47052 1.69805 9.60349 1.34211 9.60349C0.986157 9.60349 0.644787 9.47052 0.393094 9.23384C0.1414 8.99715 0 8.67613 0 8.3414V4.97581C0 3.97162 0.4242 3.00857 1.17928 2.2985C1.93436 1.58843 2.95847 1.18952 4.02632 1.18952H11.5779L11.6056 0.809208C11.6557 0.204244 12.2758 -0.175226 12.7965 0.0813999Z" fill="#555555"/>
</svg>
