<svg width="21" height="16" viewBox="0 0 21 16" fill="none" xmlns="http://www.w3.org/2000/svg">
<path d="M19.6579 6.39651C19.9915 6.39652 20.3132 6.51339 20.5602 6.72433C20.8071 6.93527 20.9617 7.22515 20.9937 7.53744L21 7.6586V11.0242C21 11.9975 20.6014 12.9334 19.887 13.6377C19.1726 14.3419 18.1972 14.7604 17.1634 14.8063L16.9737 14.8105H9.42211L9.40421 15.073L9.39437 15.1908C9.34426 15.7958 8.72421 16.1752 8.20347 15.9186L7.92253 15.7772L7.59326 15.6014L7.41163 15.5013L7.01884 15.2749C6.73905 15.1087 6.46397 14.9356 6.19389 14.7558L5.84942 14.5202L5.56042 14.3141L5.43784 14.224C5.00032 13.8959 5.01732 13.2186 5.48258 12.8727L5.60426 12.7827L5.89058 12.5791L6.23058 12.3477L6.62247 12.0944C6.83278 11.9624 7.04576 11.8342 7.26132 11.7099L7.64247 11.4954L7.978 11.3178L8.26074 11.1748C8.777 10.9224 9.34068 11.2463 9.38989 11.8109L9.42389 12.2863H16.9737C17.3073 12.2863 17.629 12.1694 17.876 11.9585C18.1229 11.7475 18.2775 11.4576 18.3095 11.1454L18.3158 11.0242V7.6586C18.3158 7.32387 18.4572 7.00285 18.7089 6.76617C18.9606 6.52948 19.3019 6.39651 19.6579 6.39651ZM16.7965 1.0814L17.0775 1.22275L17.4067 1.39861C17.4664 1.43002 17.5269 1.46339 17.5884 1.49873L17.9812 1.72507C18.261 1.89125 18.536 2.06436 18.8061 2.24421L19.1506 2.4798L19.4396 2.68594L19.5622 2.77597C19.9997 3.10412 19.9827 3.78144 19.5174 4.12726L19.3957 4.21729L19.1094 4.42091L18.7694 4.65229C18.433 4.87496 18.0893 5.08766 17.7387 5.29007L17.3575 5.50463L17.022 5.68216L16.7393 5.8252C16.223 6.07762 15.6593 5.75368 15.611 5.1891L15.5752 4.71371H8.02632C7.67037 4.71371 7.329 4.84668 7.0773 5.08337C6.82561 5.32006 6.68421 5.64108 6.68421 5.97581V9.3414C6.68421 9.67613 6.54281 9.99715 6.29112 10.2338C6.03942 10.4705 5.69805 10.6035 5.34211 10.6035C4.98616 10.6035 4.64479 10.4705 4.39309 10.2338C4.1414 9.99715 4 9.67613 4 9.3414V5.97581C4 4.97162 4.4242 4.00857 5.17928 3.2985C5.93436 2.58843 6.95847 2.18952 8.02632 2.18952H15.5779L15.6056 1.80921C15.6557 1.20424 16.2758 0.824774 16.7965 1.0814Z" fill="white"/>
<rect width="11" height="11" rx="5.5" fill="#55DF69"/>
<path d="M4.154 8V7.076H5.029V4.213L4.154 4.689V3.66L5.176 3.1H6.044V7.076H6.912V8H4.154Z" fill="white"/>
</svg>
