<svg width="18" height="15" viewBox="0 0 18 15" fill="none" xmlns="http://www.w3.org/2000/svg">
<path d="M3.301 1.39141C3.9545 1.39129 4.59808 1.55129 5.17544 1.8574C5.75281 2.16352 6.24639 2.60644 6.613 3.14741L6.731 3.33341L10.984 10.4204C11.1475 10.6931 11.3737 10.9229 11.6438 11.0908C11.9139 11.2586 12.2201 11.3596 12.537 11.3854L12.7 11.3914H13.894L13.914 10.9764L13.936 10.6164L13.948 10.4574C13.975 10.1114 14.3 9.90041 14.579 10.0474L14.885 10.2114L15.245 10.4144L15.443 10.5314L15.873 10.7944L16.102 10.9414L16.565 11.2514L16.775 11.3984L17.152 11.6714L17.467 11.9114L17.6 12.0154C17.836 12.2034 17.825 12.5814 17.577 12.7774L17.297 12.9944L16.957 13.2464L16.557 13.5284L16.101 13.8334L15.639 14.1244L15.223 14.3734L14.858 14.5784L14.551 14.7434C14.276 14.8864 13.979 14.7074 13.953 14.3834L13.928 14.0364L13.904 13.6214L13.894 13.3914H12.7C12.0465 13.3915 11.4029 13.2315 10.8256 12.9254C10.2482 12.6193 9.75461 12.1764 9.388 11.6354L9.27 11.4494L5.017 4.36241C4.85349 4.08969 4.62732 3.85988 4.35723 3.69206C4.08714 3.52423 3.78093 3.42322 3.464 3.39741L3.3 3.39141H1C0.74512 3.39113 0.499968 3.29353 0.314632 3.11856C0.129296 2.9436 0.017765 2.70446 0.00282788 2.45002C-0.0121092 2.19558 0.0706746 1.94503 0.234265 1.74958C0.397855 1.55413 0.629904 1.42852 0.883 1.39841L1 1.39141H3.301ZM7.015 9.03441C7.24198 9.17102 7.40548 9.39212 7.4696 9.64917C7.53372 9.90621 7.49323 10.1782 7.357 10.4054L6.731 11.4494C6.37561 12.0417 5.8729 12.5319 5.27181 12.8722C4.67072 13.2126 3.99174 13.3914 3.301 13.3914H1C0.734784 13.3914 0.48043 13.2861 0.292893 13.0985C0.105357 12.911 0 12.6566 0 12.3914C0 12.1262 0.105357 11.8718 0.292893 11.6843C0.48043 11.4968 0.734784 11.3914 1 11.3914H3.301C3.64637 11.3914 3.98586 11.302 4.2864 11.1318C4.58695 10.9617 4.83831 10.7166 5.016 10.4204L5.643 9.37741C5.77928 9.15009 6.00023 8.98618 6.25731 8.92167C6.51438 8.85717 6.78654 8.89736 7.014 9.03341L7.015 9.03441ZM14.578 0.0464132L14.884 0.211413L15.244 0.414413L15.442 0.531413L15.872 0.794413L16.101 0.941413L16.564 1.25141L16.774 1.39841L17.151 1.67141L17.466 1.91141L17.599 2.01541C17.835 2.20341 17.824 2.58141 17.576 2.77741L17.296 2.99441L16.956 3.24641C16.832 3.33641 16.6987 3.43041 16.556 3.52841L16.1 3.83341L15.638 4.12441L15.222 4.37341L14.857 4.57941L14.55 4.74341C14.275 4.88641 13.978 4.70741 13.952 4.38341L13.927 4.03641L13.903 3.62141L13.893 3.39141H12.7C12.3819 3.39131 12.0683 3.46711 11.7853 3.61251C11.5024 3.7579 11.2582 3.96871 11.073 4.22741L10.985 4.36241L10.359 5.40541C10.2285 5.62557 10.0185 5.78731 9.77232 5.85731C9.52613 5.92732 9.26248 5.90026 9.03564 5.78172C8.80881 5.66317 8.63606 5.46216 8.55297 5.22008C8.46988 4.978 8.48277 4.71327 8.589 4.48041L8.644 4.37641L9.27 3.33341C9.60611 2.77319 10.0743 2.30382 10.6337 1.96633C11.1931 1.62884 11.8267 1.43351 12.479 1.39741L12.699 1.39141H13.894L13.914 0.976413L13.936 0.616413L13.948 0.457413C13.975 0.111413 14.3 -0.0995869 14.579 0.0474131L14.578 0.0464132Z" fill="#55DF69"/>
</svg>
