<svg width="14" height="16" viewBox="0 0 14 16" fill="none" xmlns="http://www.w3.org/2000/svg">
<path d="M0 14.1714V5.94286C0 5.65333 0.0621248 5.37905 0.186375 5.12C0.310625 4.86095 0.481833 4.64762 0.7 4.48L5.95 0.365714C6.25625 0.121905 6.60625 0 7 0C7.39375 0 7.74375 0.121905 8.05 0.365714L13.3 4.48C13.5187 4.64762 13.6902 4.86095 13.8145 5.12C13.9387 5.37905 14.0006 5.65333 14 5.94286V14.1714C14 14.6743 13.8285 15.1049 13.4855 15.4633C13.1425 15.8217 12.7307 16.0006 12.25 16H9.625C9.37708 16 9.16941 15.9122 9.002 15.7367C8.83458 15.5611 8.75058 15.3441 8.75 15.0857V10.5143C8.75 10.2552 8.666 10.0382 8.498 9.86331C8.33 9.68838 8.12233 9.60061 7.875 9.6H6.125C5.87708 9.6 5.66942 9.68777 5.502 9.86331C5.33458 10.0389 5.25058 10.2558 5.25 10.5143V15.0857C5.25 15.3448 5.166 15.5621 4.998 15.7376C4.83 15.9131 4.62233 16.0006 4.375 16H1.75C1.26875 16 0.856916 15.8211 0.5145 15.4633C0.172083 15.1055 0.000583333 14.6749 0 14.1714Z" fill="#F7EAA6"/>
</svg>
