<svg width="16" height="15" viewBox="0 0 16 15" fill="none" xmlns="http://www.w3.org/2000/svg">
<path d="M12.4499 15C12.3202 14.9997 12.1925 14.9684 12.0778 14.9088L8 12.8013L3.92215 14.9088C3.79012 14.9768 3.64138 15.0072 3.49272 14.9965C3.34405 14.9859 3.20137 14.9346 3.08076 14.8485C2.96014 14.7624 2.8664 14.6449 2.81009 14.5093C2.75379 14.3736 2.73716 14.2252 2.76208 14.0807L3.54053 9.61726L0.241133 6.45603C0.134398 6.3536 0.0589249 6.22387 0.0232352 6.08151C-0.0124545 5.93914 -0.00693905 5.78981 0.0391587 5.65036C0.0852565 5.51091 0.170101 5.38691 0.28411 5.29236C0.39812 5.1978 0.536755 5.13646 0.684359 5.11526L5.24383 4.46414L7.28316 0.403292C7.35662 0.280493 7.46144 0.178684 7.58725 0.107947C7.71305 0.0372105 7.85547 0 8.0004 0C8.14533 0 8.28775 0.0372105 8.41356 0.107947C8.53936 0.178684 8.64418 0.280493 8.71764 0.403292L10.7562 4.46414L15.3156 5.11526C15.4632 5.13646 15.6019 5.1978 15.7159 5.29236C15.8299 5.38691 15.9147 5.51091 15.9608 5.65036C16.0069 5.78981 16.0125 5.93914 15.9768 6.08151C15.9411 6.22387 15.8656 6.3536 15.7589 6.45603L12.4595 9.61726L13.2387 14.0807C13.2584 14.1936 13.2528 14.3092 13.2223 14.4197C13.1917 14.5302 13.137 14.6328 13.062 14.7203C12.9869 14.8079 12.8934 14.8783 12.7878 14.9266C12.6822 14.9749 12.5663 14.9999 12.4499 15Z" fill="#F7EAA6"/>
</svg>
