<svg width="14" height="13" viewBox="0 0 14 13" fill="none" xmlns="http://www.w3.org/2000/svg">
<path d="M0 13V1.85714C0 1.51667 0.124727 1.2253 0.374182 0.983048C0.623636 0.740794 0.923151 0.61946 1.27273 0.619048H8.27273C8.62273 0.619048 8.92245 0.740381 9.17191 0.983048C9.42136 1.22571 9.54588 1.51708 9.54545 1.85714V2.12024C9.29091 2.23373 9.05758 2.37302 8.84545 2.5381C8.63333 2.70317 8.44242 2.88889 8.27273 3.09524V1.85714H1.27273V10.0131L2.02045 9.28572H8.27273V6.80952C8.44242 7.01587 8.63333 7.20159 8.84545 7.36667C9.05758 7.53175 9.29091 7.67103 9.54545 7.78452V9.28572C9.54545 9.62619 9.42094 9.91776 9.17191 10.1604C8.92288 10.4031 8.62315 10.5242 8.27273 10.5238H2.54545L0 13ZM2.54545 8.04762H5.09091V6.80952H2.54545V8.04762ZM10.8182 6.80952C10.2879 6.80952 9.83712 6.62897 9.46591 6.26786C9.0947 5.90675 8.90909 5.46825 8.90909 4.95238C8.90909 4.43651 9.0947 3.99802 9.46591 3.6369C9.83712 3.27579 10.2879 3.09524 10.8182 3.09524C10.9348 3.09524 11.0462 3.10556 11.1523 3.12619C11.2583 3.14683 11.3591 3.17262 11.4545 3.20357V0H14V1.2381H12.7273V4.95238C12.7273 5.46825 12.5417 5.90675 12.1705 6.26786C11.7992 6.62897 11.3485 6.80952 10.8182 6.80952ZM2.54545 6.19048H7V4.95238H2.54545V6.19048ZM2.54545 4.33333H7V3.09524H2.54545V4.33333Z" fill="#A5A5A5"/>
</svg>
