<svg width="531" height="208" viewBox="0 0 531 208" fill="none" xmlns="http://www.w3.org/2000/svg">
<path d="M25 0V75H75V100H0V0H25ZM161 0V100H86V0H161ZM111 25V75H136V25H111ZM247 0V100H172V0H247ZM197 25V75H222V25H197ZM333 0V75H283V100H258V0H333ZM283 25V50H308V25H283ZM419 0V25H394V50H369V75H419V100H344V0H419ZM505 0V50H480V25H455V50H480V75H455V100H430V0H505ZM505 75V100H480V75H505Z" fill="white"/>
<path d="M75 107.812V182.812H25V207.812H0V107.812H75ZM25 132.812V157.812H50V132.812H25ZM111 107.812V182.812H161V207.812H86V107.812H111ZM247 107.812V207.812H222V182.812H197V207.812H172V107.812H247ZM197 132.812V157.812H222V132.812H197ZM283 107.812V157.812H258V107.812H283ZM333 107.812V157.812H308V107.812H333ZM308 157.812V207.812H283V157.812H308ZM419 107.812V132.812H394V157.812H369V182.812H419V207.812H344V107.812H419ZM505 107.812V157.812H480V132.812H455V157.812H480V182.812H455V207.812H430V107.812H505ZM505 182.812V207.812H480V182.812H505Z" fill="white"/>
<rect x="480.906" y="181.75" width="26.0491" height="25.2529" fill="#41C25E"/>
<rect x="480.906" y="73.9375" width="26.0491" height="25.2529" fill="#41C25E"/>
</svg>
