<svg width="11" height="11" viewBox="0 0 11 11" fill="none" xmlns="http://www.w3.org/2000/svg">
<path d="M10.25 0.375C10.25 0.275544 10.2895 0.180161 10.3598 0.109835C10.4302 0.0395089 10.5255 0 10.625 0C10.7245 0 10.8198 0.0395089 10.8902 0.109835C10.9605 0.180161 11 0.275544 11 0.375V10.625C11 10.7245 10.9605 10.8198 10.8902 10.8902C10.8198 10.9605 10.7245 11 10.625 11C10.5255 11 10.4302 10.9605 10.3598 10.8902C10.2895 10.8198 10.25 10.7245 10.25 10.625V0.375ZM0 1.127C0 0.219 1.0205 -0.315 1.7665 0.203L8.0185 4.543C8.1672 4.64618 8.28881 4.78372 8.373 4.94394C8.4572 5.10415 8.50149 5.28232 8.50213 5.46331C8.50277 5.6443 8.45973 5.82277 8.37667 5.98358C8.2936 6.14438 8.17297 6.28277 8.025 6.387L1.773 10.792C1.028 11.317 0 10.785 0 9.8725V1.127Z" fill="white"/>
</svg>
