<svg width="9" height="12" viewBox="0 0 9 12" fill="none" xmlns="http://www.w3.org/2000/svg">
<path d="M0 11.4857V0.514286C0 0.377889 0.0517206 0.247078 0.143784 0.150631C0.235847 0.0541835 0.360712 0 0.490909 0H2.78182C2.91201 0 3.03688 0.0541835 3.12894 0.150631C3.22101 0.247078 3.27273 0.377889 3.27273 0.514286V11.4857C3.27273 11.6221 3.22101 11.7529 3.12894 11.8494C3.03688 11.9458 2.91201 12 2.78182 12H0.490909C0.360712 12 0.235847 11.9458 0.143784 11.8494C0.0517206 11.7529 0 11.6221 0 11.4857ZM5.72727 11.4857V0.514286C5.72727 0.377889 5.77899 0.247078 5.87106 0.150631C5.96312 0.0541835 6.08799 0 6.21818 0H8.50909C8.63929 0 8.76415 0.0541835 8.85622 0.150631C8.94828 0.247078 9 0.377889 9 0.514286V11.4857C9 11.6221 8.94828 11.7529 8.85622 11.8494C8.76415 11.9458 8.63929 12 8.50909 12H6.21818C6.08799 12 5.96312 11.9458 5.87106 11.8494C5.77899 11.7529 5.72727 11.6221 5.72727 11.4857Z" fill="#D9D6C3"/>
</svg>
