<svg width="9" height="11" viewBox="0 0 9 11" fill="none" xmlns="http://www.w3.org/2000/svg">
<path d="M0.70731 0.0662849L8.7583 5.04504C8.83164 5.09046 8.89267 5.1565 8.93514 5.23639C8.97762 5.31628 9 5.40714 9 5.49967C9 5.5922 8.97762 5.68307 8.93514 5.76296C8.89267 5.84285 8.83164 5.90889 8.7583 5.9543L0.70731 10.9331C0.635047 10.9777 0.553408 11.0008 0.470515 11C0.387622 10.9992 0.306365 10.9745 0.234831 10.9285C0.163297 10.8824 0.103979 10.8166 0.0627794 10.7375C0.0215799 10.6585 -6.43279e-05 10.5689 1.4361e-07 10.4778V0.521568C3.92776e-05 0.4305 0.0217591 0.341029 0.0630009 0.262048C0.104243 0.183067 0.163571 0.117325 0.235088 0.0713565C0.306605 0.0253882 0.38782 0.000794217 0.470663 1.89155e-05C0.553506 -0.000756386 0.635091 0.0216618 0.70731 0.0662849Z" fill="white"/>
</svg>
