<svg width="11" height="11" viewBox="0 0 11 11" fill="none" xmlns="http://www.w3.org/2000/svg">
<path d="M0.75 0.375C0.75 0.275544 0.710492 0.180161 0.640165 0.109835C0.569839 0.0395089 0.474456 0 0.375 0C0.275544 0 0.180161 0.0395089 0.109835 0.109835C0.0395079 0.180161 0 0.275544 0 0.375V10.625C0 10.7245 0.0395079 10.8198 0.109835 10.8902C0.180161 10.9605 0.275544 11 0.375 11C0.474456 11 0.569839 10.9605 0.640165 10.8902C0.710492 10.8198 0.75 10.7245 0.75 10.625V0.375ZM11 1.127C11 0.219 9.9795 -0.315 9.2335 0.203L2.9815 4.543C2.8328 4.64618 2.71119 4.78372 2.627 4.94394C2.5428 5.10415 2.49851 5.28232 2.49787 5.46331C2.49723 5.6443 2.54027 5.82277 2.62333 5.98358C2.7064 6.14438 2.82703 6.28277 2.975 6.387L9.227 10.792C9.972 11.317 11 10.785 11 9.8725V1.127Z" fill="white"/>
</svg>
