<svg width="16" height="13" viewBox="0 0 16 13" fill="none" xmlns="http://www.w3.org/2000/svg">
<path d="M15.3171 0.648438H9.81706H15.3171ZM15.3171 4.3151H9.81706H15.3171ZM15.3171 7.98177H7.98372H15.3171ZM15.3171 11.6484H0.650391H15.3171Z" fill="white"/>
<path d="M15.3171 0.648438H9.81706M15.3171 4.3151H9.81706M15.3171 7.98177H7.98372M15.3171 11.6484H0.650391" stroke="white" stroke-width="1.3" stroke-linecap="round" stroke-linejoin="round"/>
<path d="M2.4834 4.9668C2.79724 4.9668 3.09839 5.09156 3.32031 5.31348C3.54205 5.5353 3.66691 5.83577 3.66699 6.14941C3.66699 6.46325 3.54223 6.76441 3.32031 6.98633C3.09839 7.20825 2.79724 7.33301 2.4834 7.33301C2.16975 7.33292 1.86929 7.20807 1.64746 6.98633C1.42554 6.76441 1.30078 6.46325 1.30078 6.14941C1.30087 5.83569 1.42562 5.53532 1.64746 5.31348C1.8693 5.09164 2.16968 4.96688 2.4834 4.9668Z" fill="white" stroke="white" stroke-width="1.3"/>
<path d="M4.31706 6.14844C4.31706 6.63467 4.1239 7.10098 3.78009 7.4448C3.43627 7.78862 2.96995 7.98177 2.48372 7.98177C1.99749 7.98177 1.53118 7.78862 1.18736 7.4448C0.843545 7.10098 0.650391 6.63467 0.650391 6.14844C0.650391 5.66221 0.843545 5.19589 1.18736 4.85208C1.53118 4.50826 1.99749 4.3151 2.48372 4.3151C2.96995 4.3151 3.43627 4.50826 3.78009 4.85208C4.1239 5.19589 4.31706 5.66221 4.31706 6.14844ZM4.31706 6.14844V1.5651V6.14844ZM4.31706 1.5651H6.15039V0.648438H4.31706V1.5651Z" fill="white"/>
<path d="M4.31706 6.14844C4.31706 6.63467 4.1239 7.10098 3.78009 7.4448C3.43627 7.78862 2.96995 7.98177 2.48372 7.98177C1.99749 7.98177 1.53118 7.78862 1.18736 7.4448C0.843545 7.10098 0.650391 6.63467 0.650391 6.14844C0.650391 5.66221 0.843545 5.19589 1.18736 4.85208C1.53118 4.50826 1.99749 4.3151 2.48372 4.3151C2.96995 4.3151 3.43627 4.50826 3.78009 4.85208C4.1239 5.19589 4.31706 5.66221 4.31706 6.14844ZM4.31706 6.14844V1.5651M4.31706 1.5651H6.15039V0.648438H4.31706V1.5651Z" stroke="white" stroke-width="1.3" stroke-linecap="round" stroke-linejoin="round"/>
</svg>
