<svg width="14" height="12" viewBox="0 0 14 12" fill="none" xmlns="http://www.w3.org/2000/svg">
<path d="M12.8947 4.31721C13.1695 4.31722 13.4344 4.41071 13.6378 4.57946C13.8412 4.74821 13.9685 4.98012 13.9948 5.22995L14 5.32688V8.01935C14 8.798 13.6718 9.54674 13.0834 10.1101C12.4951 10.6735 11.6918 11.0083 10.8404 11.045L10.6842 11.0484H4.46526L4.45053 11.2584L4.44242 11.3526C4.40116 11.8366 3.89053 12.1402 3.46168 11.9349L3.23032 11.8218L2.95916 11.6811L2.80958 11.601L2.48611 11.4199C2.25569 11.287 2.02915 11.1485 1.80674 11.0046L1.52305 10.8162L1.28505 10.6512L1.18411 10.5792C0.823789 10.3167 0.83779 9.77485 1.22095 9.49819L1.32116 9.42617L1.55695 9.26328L1.83695 9.07817L2.15968 8.87556C2.33287 8.76994 2.50827 8.66739 2.68579 8.56794L2.99968 8.3963L3.276 8.25427L3.50884 8.13984C3.934 7.93791 4.39821 8.19706 4.43874 8.64872L4.46674 9.02903H10.6842C10.959 9.02902 11.2239 8.93552 11.4273 8.76677C11.6306 8.59802 11.7579 8.36612 11.7843 8.11628L11.7895 8.01935V5.32688C11.7895 5.0591 11.9059 4.80228 12.1132 4.61293C12.3205 4.42358 12.6016 4.31721 12.8947 4.31721ZM10.5383 0.0651199L10.7697 0.178204L11.0408 0.318885C11.09 0.344015 11.1398 0.370715 11.1904 0.398986L11.5139 0.580055C11.7443 0.713003 11.9708 0.85149 12.1933 0.995369L12.4769 1.18384L12.7149 1.34876L12.8159 1.42078C13.1762 1.6833 13.1622 2.22516 12.7791 2.50181L12.6788 2.57383L12.4431 2.73672L12.1631 2.92183C11.886 3.09997 11.6029 3.27013 11.3142 3.43206L11.0003 3.6037L10.724 3.74573L10.4912 3.86016C10.066 4.06209 9.60179 3.80294 9.562 3.35128L9.53253 2.97097H3.31579C3.02266 2.97097 2.74153 3.07735 2.53425 3.2667C2.32697 3.45605 2.21053 3.71286 2.21053 3.98065V6.67312C2.21053 6.9409 2.09408 7.19772 1.8868 7.38707C1.67953 7.57642 1.3984 7.6828 1.10526 7.6828C0.812129 7.6828 0.531001 7.57642 0.323724 7.38707C0.116447 7.19772 0 6.9409 0 6.67312V3.98065C0 3.1773 0.349341 2.40685 0.971172 1.8388C1.593 1.27075 2.43639 0.951616 3.31579 0.951616H9.53474L9.55758 0.647367C9.59884 0.163395 10.1095 -0.140181 10.5383 0.0651199Z" fill="#A5A5A5"/>
</svg>
