<svg width="15" height="13" viewBox="0 0 15 13" fill="none" xmlns="http://www.w3.org/2000/svg">
<path d="M2.70457 1.14001C3.24 1.13991 3.76729 1.271 4.24034 1.52181C4.71339 1.77261 5.11778 2.1355 5.41816 2.57873L5.51483 2.73113L8.9994 8.53764C9.13336 8.76109 9.31867 8.94937 9.53996 9.08688C9.76125 9.22438 10.0121 9.30714 10.2718 9.32828L10.4053 9.3332H11.3836L11.4 8.99318L11.418 8.69823L11.4279 8.56796C11.45 8.28447 11.7163 8.1116 11.9448 8.23203L12.1956 8.3664L12.4905 8.53272L12.6527 8.62858L13.005 8.84407L13.1927 8.96451L13.572 9.21849L13.7441 9.33893L14.053 9.56261L14.311 9.75924L14.42 9.84445C14.6134 9.99849 14.6044 10.3082 14.4012 10.4688L14.1718 10.6466L13.8932 10.853L13.5655 11.0841L13.1919 11.334L12.8133 11.5724L12.4725 11.7764L12.1734 11.9444L11.9219 12.0796C11.6966 12.1967 11.4533 12.0501 11.432 11.7846L11.4115 11.5003L11.3918 11.1603L11.3836 10.9718H10.4053C9.86992 10.9719 9.34263 10.8408 8.86958 10.59C8.39653 10.3392 7.99214 9.97635 7.69176 9.53311L7.59509 9.38072L4.11052 3.57421C3.97656 3.35076 3.79125 3.16247 3.56996 3.02497C3.34867 2.88747 3.09779 2.80471 2.83812 2.78356L2.70375 2.77865H0.819319C0.610491 2.77842 0.409633 2.69845 0.257784 2.5551C0.105934 2.41174 0.0145552 2.21581 0.00231694 2.00735C-0.00992133 1.79888 0.057905 1.5936 0.191938 1.43346C0.32597 1.27333 0.516092 1.17041 0.723458 1.14575L0.819319 1.14001H2.70457ZM5.74752 7.40206C5.93349 7.51399 6.06745 7.69514 6.11999 7.90574C6.17252 8.11635 6.13934 8.33919 6.02773 8.52535L5.51483 9.38072C5.22366 9.86601 4.81177 10.2676 4.31929 10.5465C3.82681 10.8253 3.27051 10.9718 2.70457 10.9718H0.819319C0.602022 10.9718 0.393625 10.8855 0.239973 10.7319C0.0863208 10.5782 0 10.3698 0 10.1525C0 9.93522 0.0863208 9.72682 0.239973 9.57317C0.393625 9.41952 0.602022 9.3332 0.819319 9.3332H2.70457C2.98754 9.3332 3.26569 9.25993 3.51193 9.12051C3.75817 8.98109 3.96411 8.78028 4.1097 8.53764L4.62342 7.68309C4.73507 7.49684 4.9161 7.36254 5.12673 7.30969C5.33735 7.25685 5.56034 7.28977 5.7467 7.40125L5.74752 7.40206ZM11.944 0.0380272L12.1947 0.173215L12.4897 0.339536L12.6519 0.435397L13.0042 0.650877L13.1919 0.771318L13.5712 1.02531L13.7433 1.14575L14.0521 1.36942L14.3102 1.56606L14.4192 1.65127C14.6126 1.8053 14.6035 2.115 14.4003 2.27559L14.1709 2.45338L13.8924 2.65985C13.7908 2.73359 13.6815 2.8106 13.5646 2.8909L13.191 3.14079L12.8125 3.37921L12.4717 3.58322L12.1726 3.752L11.9211 3.88637C11.6958 4.00353 11.4524 3.85687 11.4311 3.59141L11.4107 3.30711L11.391 2.96709L11.3828 2.77865H10.4053C10.1447 2.77857 9.88778 2.84067 9.65594 2.95979C9.4241 3.07892 9.22402 3.25164 9.07232 3.4636L9.00022 3.57421L8.48732 4.42876C8.38038 4.60914 8.20835 4.74165 8.00664 4.79901C7.80494 4.85636 7.58892 4.83419 7.40307 4.73707C7.21722 4.63994 7.07568 4.47525 7.00761 4.27691C6.93953 4.07857 6.9501 3.86167 7.03713 3.67089L7.08219 3.58568L7.59509 2.73113C7.87047 2.27213 8.25409 1.88756 8.71242 1.61105C9.17074 1.33454 9.68982 1.1745 10.2243 1.14493L10.4045 1.14001H11.3836L11.4 0.799994L11.418 0.505039L11.4279 0.374767C11.45 0.0912827 11.7163 -0.0815934 11.9448 0.0388464L11.944 0.0380272Z" fill="white"/>
</svg>
