<svg width="17" height="19" viewBox="0 0 17 19" fill="none" xmlns="http://www.w3.org/2000/svg">
<path d="M12.4531 18.3125H4.48438C2.09375 18.3125 0.5 17.0938 0.5 14.25V10.1875C0.5 7.34375 2.09375 6.125 4.48438 6.125H12.4531C14.8438 6.125 16.4375 7.34375 16.4375 10.1875V14.25C16.4375 17.0938 14.8438 18.3125 12.4531 18.3125Z" stroke="#A5A5A5" stroke-miterlimit="10" stroke-linecap="round" stroke-linejoin="round"/>
<path d="M3.3125 3.3125H13.625" stroke="#A5A5A5" stroke-miterlimit="10" stroke-linecap="round" stroke-linejoin="round"/>
<path d="M6.125 0.5H10.8125" stroke="#A5A5A5" stroke-miterlimit="10" stroke-linecap="round" stroke-linejoin="round"/>
<path d="M6.125 15.5C6.64277 15.5 7.0625 15.0802 7.0625 14.5625C7.0625 14.0447 6.64277 13.625 6.125 13.625C5.60723 13.625 5.1875 14.0447 5.1875 14.5625C5.1875 15.0802 5.60723 15.5 6.125 15.5Z" stroke="#A5A5A5" stroke-linecap="round" stroke-linejoin="round"/>
<path d="M10.8125 13.8739V9.82532C10.8125 8.96266 10.2821 8.84165 9.7368 8.993L7.68999 9.56054C7.31648 9.66649 7.0625 9.96153 7.0625 10.3929V11.1118V11.5961V14.5625" stroke="#A5A5A5" stroke-linecap="round" stroke-linejoin="round"/>
<path d="M9.87497 14.5625C10.3928 14.5625 10.8125 14.1427 10.8125 13.625C10.8125 13.1072 10.3928 12.6875 9.87497 12.6875C9.35724 12.6875 8.9375 13.1072 8.9375 13.625C8.9375 14.1427 9.35724 14.5625 9.87497 14.5625Z" stroke="#A5A5A5" stroke-linecap="round" stroke-linejoin="round"/>
<path d="M7.0625 11.75L10.8125 9.875" stroke="#A5A5A5" stroke-linecap="round" stroke-linejoin="round"/>
</svg>
