<svg width="19" height="26" viewBox="0 0 19 26" fill="none" xmlns="http://www.w3.org/2000/svg">
<g clip-path="url(#clip0_410_784)">
<path fill-rule="evenodd" clip-rule="evenodd" d="M13.6035 2.64648C5.73373 5.31315 8.801 15.8702 9.74179 22.012C9.54994 22.944 9.08807 23.808 8.4014 24.4909C7.47852 25.4084 6.22669 25.9242 4.92155 25.9242C3.61636 25.9242 2.36461 25.4084 1.44171 24.4909C0.518837 23.5732 0 22.3287 0 21.0309C6.70211e-05 19.7333 0.518861 18.4886 1.44171 17.571C2.3646 16.6535 3.61645 16.1381 4.92155 16.1381C5.68073 16.1381 6.39768 16.306 7.03035 16.6135L4.1267 3.59093L13.6035 2.64648ZM4.98545 19.6472C4.25091 19.6472 3.65544 20.2473 3.65544 20.9875C3.65544 21.7277 4.25091 22.3277 4.98545 22.3277C5.72 22.3277 6.31546 21.7277 6.31546 20.9875C6.31546 20.2473 5.72 19.6472 4.98545 19.6472Z" fill="#55DF69"/>
<path fill-rule="evenodd" clip-rule="evenodd" d="M18.457 1.625C18.2522 2.10409 16.8052 16.0902 18.9092 20.6139C18.7613 21.328 18.4053 21.99 17.876 22.5131C17.1645 23.2162 16.1996 23.6113 15.1936 23.6113C14.1875 23.6113 13.2227 23.2162 12.5112 22.5131C11.7998 21.8101 11.3999 20.8565 11.3999 19.8622C11.4 18.868 11.7999 17.9143 12.5112 17.2113C13.2227 16.5084 14.1876 16.1135 15.1936 16.1135C15.7788 16.1135 15.6813 16.1135 15.7428 16.1135L13.7586 2.18067L18.457 1.625ZM15.2428 18.8021C14.6767 18.8021 14.2176 19.2619 14.2176 19.829C14.2176 20.3961 14.6767 20.8557 15.2428 20.8557C15.809 20.8557 16.2681 20.3961 16.2681 19.829C16.2681 19.2619 15.809 18.8021 15.2428 18.8021Z" fill="#55DF69"/>
<path d="M3.87862 2.42444C3.7593 1.33815 19.1528 -0.636967 18.8875 0.202215C18.6064 1.09114 18.3816 2.03555 18.3816 2.03555L4.2159 4.03554C4.2159 4.03554 3.94878 3.06319 3.87862 2.42444Z" fill="#55DF69"/>
<path d="M5.56514 7.14692C5.54589 7.01449 5.52609 6.88219 5.50575 6.75C5.32266 5.56036 5.09518 4.38081 4.82335 3.21132C4.80686 3.14037 4.79019 3.06947 4.77339 2.99861L4.63916 3.19937C5.76087 2.99561 6.87551 2.75276 7.98306 2.47083C8.11407 2.43749 8.24498 2.40359 8.37579 2.36914C8.24101 2.38171 8.10634 2.39483 7.97176 2.40849C6.83404 2.52399 5.70342 2.67857 4.57987 2.87224L4.40552 2.90392L4.44564 3.07302C4.46181 3.14403 4.47813 3.21501 4.49463 3.28595C4.76647 4.45544 5.08269 5.61485 5.44329 6.76419C5.48336 6.89189 5.52398 7.01946 5.56514 7.14692Z" fill="#2D933B"/>
<path d="M15.7957 10.1497C15.7869 10.0241 15.7775 9.89865 15.7675 9.77326C15.6825 8.69902 15.5565 7.63114 15.3899 6.56959L15.3904 6.57284C15.383 6.51914 15.3757 6.46546 15.3681 6.41179C15.2109 5.29413 15.0087 4.18262 14.7613 3.07721C14.7339 2.9544 14.7058 2.83165 14.6772 2.70898C14.6836 2.83468 14.6905 2.96031 14.6978 3.08584C14.7649 4.21576 14.8769 5.33955 15.0341 6.4572C15.0416 6.51087 15.0493 6.56452 15.057 6.61817L15.0575 6.62141C15.2323 7.68166 15.4479 8.73557 15.7043 9.78312C15.7342 9.90539 15.7646 10.0276 15.7957 10.1497Z" fill="#2D933B"/>
</g>
<defs>
<clipPath id="clip0_410_784">
<rect width="19" height="26" fill="white"/>
</clipPath>
</defs>
</svg>
