<svg fill="none" height="100%" width="100%" viewBox="0 0 1920 1080" xmlns:xlink="http://www.w3.org/1999/xlink" xmlns="http://www.w3.org/2000/svg"><defs><filter filterUnits="userSpaceOnUse" height="200%" width="200%" y="-50%" x="-50%" id="f0"><feDropShadow result="dropShadow0" flood-opacity="0.638" flood-color="#000000" stdDeviation="0" dy="1.768" dx="1.768" in="SourceGraphic" /></filter><filter filterUnits="userSpaceOnUse" height="200%" width="200%" y="-50%" x="-50%" id="f1"><feDropShadow result="dropShadow0" flood-opacity="0.638" flood-color="#000000" stdDeviation="0" dy="1.768" dx="1.768" in="SourceGraphic" /></filter><filter filterUnits="userSpaceOnUse" height="200%" width="200%" y="-50%" x="-50%" id="f2"><feDropShadow result="dropShadow0" flood-opacity="0.638" flood-color="#000000" stdDeviation="0" dy="1.768" dx="1.768" in="SourceGraphic" /></filter><filter filterUnits="userSpaceOnUse" height="200%" width="200%" y="-50%" x="-50%" id="f3"><feDropShadow result="dropShadow0" flood-opacity="0.638" flood-color="#000000" stdDeviation="0" dy="1.768" dx="1.768" in="SourceGraphic" /></filter><filter filterUnits="userSpaceOnUse" height="200%" width="200%" y="-50%" x="-50%" id="f4"><feDropShadow result="dropShadow0" flood-opacity="0.638" flood-color="#000000" stdDeviation="0" dy="1.768" dx="1.768" in="SourceGraphic" /></filter><filter filterUnits="userSpaceOnUse" height="200%" width="200%" y="-50%" x="-50%" id="f5"><feDropShadow result="dropShadow0" flood-opacity="0.638" flood-color="#000000" stdDeviation="0" dy="1.768" dx="1.768" in="SourceGraphic" /></filter><filter filterUnits="userSpaceOnUse" height="200%" width="200%" y="-50%" x="-50%" id="f6"><feDropShadow result="dropShadow0" flood-opacity="0.638" flood-color="#000000" stdDeviation="0" dy="1.768" dx="1.768" in="SourceGraphic" /></filter><filter filterUnits="userSpaceOnUse" height="200%" width="200%" y="-50%" x="-50%" id="f7"><feDropShadow result="dropShadow0" flood-opacity="0.638" flood-color="#000000" stdDeviation="0" dy="1.768" dx="1.768" in="SourceGraphic" /></filter><filter filterUnits="userSpaceOnUse" height="200%" width="200%" y="-50%" x="-50%" id="f8"><feDropShadow result="dropShadow0" flood-opacity="0.638" flood-color="#000000" stdDeviation="0" dy="1.768" dx="1.768" in="SourceGraphic" /></filter><filter filterUnits="userSpaceOnUse" height="200%" width="200%" y="-50%" x="-50%" id="f9"><feDropShadow result="dropShadow0" flood-opacity="0.638" flood-color="#000000" stdDeviation="0" dy="1.768" dx="1.768" in="SourceGraphic" /></filter><filter filterUnits="userSpaceOnUse" height="200%" width="200%" y="-50%" x="-50%" id="f10"><feDropShadow result="dropShadow0" flood-opacity="0.638" flood-color="#000000" stdDeviation="0" dy="1.768" dx="1.768" in="SourceGraphic" /></filter></defs><g filter="url(#f0)" transform="matrix(1,0,0,1,749.5,555)" id="i11"><g id="i12" transform="matrix(1,0,0,1,193.16,111.627)"><path fill="#2e2d2d" d="M124.275,-71.751C192.91,-32.124,192.91,32.123,124.275,71.749C55.64,111.376,-55.64,111.376,-124.274,71.749C-192.91,32.123,-192.91,-32.124,-124.274,-71.751C-55.64,-111.377,55.64,-111.377,124.275,-71.751Z" /></g><g id="i13" transform="matrix(1,0,0,1,193.16,111.627)"><path fill="#7878ff" d="M30.908,-17.846C47.978,-7.991,47.978,7.989,30.908,17.844C13.838,27.7,-13.838,27.7,-30.907,17.844C-47.977,7.989,-47.977,-7.991,-30.907,-17.846C-13.838,-27.7,13.838,-27.7,30.908,-17.846Z" /></g><g id="i14" transform="matrix(1,0,0,1,193.16,111.627)"><path fill="#000000" fill-rule="evenodd" d="M-30.908,-17.846C-13.838,-27.7,13.838,-27.7,30.908,-17.846C47.977,-7.991,47.977,7.989,30.908,17.844C13.838,27.7,-13.838,27.7,-30.908,17.844C-47.978,7.989,-47.978,-7.991,-30.908,-17.846ZM-41.3,-23.846C-64.073,-10.698,-64.073,10.697,-41.3,23.844C-18.528,36.993,18.527,36.993,41.3,23.844C64.073,10.697,64.073,-10.698,41.3,-23.846C18.527,-36.993,-18.528,-36.993,-41.3,-23.846Z" /></g><g id="i15" transform="matrix(1,0,0,1,193.16,111.626)"><path fill="#ffffff" d="M3.764,-2.173C5.843,-0.973,5.843,0.973,3.764,2.173C1.685,3.373,-1.686,3.373,-3.764,2.173C-5.843,0.973,-5.843,-0.973,-3.764,-2.173C-1.686,-3.373,1.685,-3.373,3.764,-2.173Z" /></g></g><g id="i16"><animate repeatCount="indefinite" attributeName="opacity" dur="1.792s" begin="0s" fill="freeze" values="0; 0; 1; 1; 0; 0" keyTimes="0; 0.093023; 0.162791; 0.510116; 0.593523; 1" keySplines="0 0 1 1; 0.167 0 0.833 1; 0.333 0 0.833 1; 0.333 0 0.667 1; 0 0 1 1" calcMode="spline" /><g transform="translate(943,510.496)"><animateTransform repeatCount="indefinite" type="translate" attributeName="transform" dur="1.792s" begin="0s" calcMode="spline" values="943 369; 943 369; 943 667; 943 667" keyTimes="0; 0.093023; 0.510107; 1" keySplines="0 0 1 1; 0.707 0 0.833 0.833; 0 0 1 1" fill="freeze" /><g transform="rotate(-36.08)"><animateTransform repeatCount="indefinite" type="rotate" attributeName="transform" dur="1.792s" begin="0s" calcMode="spline" values="0; 0; -37; 0; 0" keyTimes="0; 0.093023; 0.426698; 0.510107; 1" keySplines="0 0 1 1; 0.333 0 0.667 1; 0.333 0 0.667 1; 0 0 1 1" fill="freeze" /><g filter="url(#f1)" id="f17"><g transform="scale(1,1) translate(-193.5,-112)"><g id="i12" transform="matrix(1,0,0,1,193.16,111.626)"><path fill="#2c2b2b" d="M124.275,-71.75C192.91,-32.124,192.91,32.123,124.275,71.75C55.64,111.376,-55.64,111.376,-124.274,71.75C-192.91,32.123,-192.91,-32.124,-124.274,-71.75C-55.64,-111.376,55.64,-111.376,124.275,-71.75Z" /></g><g id="i13" transform="matrix(1,0,0,1,193.16,111.626)"><path fill="#7878ff" d="M30.908,-17.845C47.978,-7.99,47.978,7.989,30.908,17.844C13.838,27.7,-13.838,27.7,-30.907,17.844C-47.977,7.989,-47.977,-7.99,-30.907,-17.845C-13.838,-27.7,13.838,-27.7,30.908,-17.845Z" /></g><g id="i14" transform="matrix(1,0,0,1,193.16,111.626)"><path fill="#000000" fill-rule="evenodd" d="M-30.908,-17.845C-13.838,-27.7,13.838,-27.7,30.908,-17.845C47.977,-7.99,47.977,7.989,30.908,17.844C13.838,27.7,-13.838,27.7,-30.908,17.844C-47.978,7.989,-47.978,-7.99,-30.908,-17.845ZM-41.3,-23.845C-64.073,-10.697,-64.073,10.696,-41.3,23.844C-18.528,36.992,18.527,36.992,41.3,23.844C64.073,10.696,64.073,-10.697,41.3,-23.845C18.527,-36.993,-18.528,-36.993,-41.3,-23.845Z" /></g><g id="i15" transform="matrix(1,0,0,1,193.16,111.626)"><path fill="#ffffff" d="M3.764,-2.173C5.843,-0.973,5.843,0.973,3.764,2.173C1.685,3.373,-1.686,3.373,-3.764,2.173C-5.843,0.973,-5.843,-0.973,-3.764,-2.173C-1.686,-3.373,1.685,-3.373,3.764,-2.173Z" /></g></g></g></g></g></g><g id="i18"><animate repeatCount="indefinite" attributeName="opacity" dur="1.792s" begin="0s" fill="freeze" values="0; 0; 1; 1; 0; 0" keyTimes="0; 0.232558; 0.27907; 0.64914; 0.732558; 1" keySplines="0 0 1 1; 0.167 0 0.833 1; 0.333 0 0.833 1; 0.333 0 0.667 1; 0 0 1 1" calcMode="spline" /><g transform="translate(943,400.494)"><animateTransform repeatCount="indefinite" type="translate" attributeName="transform" dur="1.792s" begin="0s" calcMode="spline" values="943 369; 943 369; 943 667; 943 667" keyTimes="0; 0.23207; 0.649142; 1" keySplines="0 0 1 1; 0.707 0 0.833 0.833; 0 0 1 1" fill="freeze" /><g transform="rotate(17.91)"><animateTransform repeatCount="indefinite" type="rotate" attributeName="transform" dur="1.792s" begin="0s" calcMode="spline" values="0; 0; 37; 0; 0" keyTimes="0; 0.23207; 0.565721; 0.649142; 1" keySplines="0 0 1 1; 0.333 0 0.667 1; 0.333 0 0.667 1; 0 0 1 1" fill="freeze" /><g filter="url(#f2)" id="f19"><g transform="scale(1,1) translate(-193.5,-112)"><g id="i12" transform="matrix(1,0,0,1,193.16,111.626)"><path fill="#373737" d="M124.275,-71.75C192.91,-32.124,192.91,32.124,124.275,71.75C55.64,111.376,-55.64,111.376,-124.274,71.75C-192.91,32.124,-192.91,-32.124,-124.274,-71.75C-55.64,-111.376,55.64,-111.376,124.275,-71.75Z" /></g><g id="i13" transform="matrix(1,0,0,1,193.16,111.626)"><path fill="#7878ff" d="M30.908,-17.845C47.978,-7.99,47.978,7.989,30.908,17.844C13.838,27.7,-13.838,27.7,-30.907,17.844C-47.977,7.989,-47.977,-7.99,-30.907,-17.845C-13.838,-27.7,13.838,-27.7,30.908,-17.845Z" /></g><g id="i14" transform="matrix(1,0,0,1,193.16,111.626)"><path fill="#000000" fill-rule="evenodd" d="M-30.908,-17.845C-13.838,-27.7,13.838,-27.7,30.908,-17.845C47.977,-7.99,47.977,7.988,30.908,17.844C13.838,27.699,-13.838,27.699,-30.908,17.844C-47.978,7.988,-47.978,-7.99,-30.908,-17.845ZM-41.3,-23.845C-64.073,-10.697,-64.073,10.696,-41.3,23.844C-18.528,36.992,18.527,36.992,41.3,23.844C64.073,10.696,64.073,-10.698,41.3,-23.845C18.527,-36.993,-18.528,-36.993,-41.3,-23.845Z" /></g><g id="i15" transform="matrix(1,0,0,1,193.16,111.626)"><path fill="#ffffff" d="M3.764,-2.173C5.843,-0.973,5.843,0.973,3.764,2.173C1.685,3.373,-1.686,3.373,-3.764,2.173C-5.843,0.973,-5.843,-0.973,-3.764,-2.173C-1.686,-3.373,1.685,-3.373,3.764,-2.173Z" /></g></g></g></g></g></g><g opacity="0" id="i20"><animate repeatCount="indefinite" attributeName="opacity" dur="1.792s" begin="0s" fill="freeze" values="0; 0; 1; 1; 0.01; 0.01" keyTimes="0; 0.395349; 0.44186; 0.815977; 0.899391; 1" keySplines="0 0 1 1; 0.167 0 0.833 1; 0.333 0 0.833 1; 0.333 0 0.667 1; 0 0 1 1" calcMode="spline" /><g transform="translate(943,369)"><animateTransform repeatCount="indefinite" type="translate" attributeName="transform" dur="1.792s" begin="0s" calcMode="spline" values="943 369; 943 369; 943 667; 943 667" keyTimes="0; 0.398884; 0.815975; 1" keySplines="0 0 1 1; 0.707 0 0.833 0.833; 0 0 1 1" fill="freeze" /><g transform="rotate(0)"><animateTransform repeatCount="indefinite" type="rotate" attributeName="transform" dur="1.792s" begin="0s" calcMode="spline" values="0; 0; -37; 0; 0" keyTimes="0; 0.398884; 0.732558; 0.815975; 1" keySplines="0 0 1 1; 0.333 0 0.667 1; 0.333 0 0.667 1; 0 0 1 1" fill="freeze" /><g filter="url(#f3)" id="f21"><g transform="scale(1,1) translate(-193.5,-112)"><g id="i12" transform="matrix(1,0,0,1,193.16,111.626)"><path fill="#373737" d="M124.275,-71.75C192.91,-32.124,192.91,32.123,124.275,71.75C55.64,111.376,-55.64,111.376,-124.274,71.75C-192.91,32.123,-192.91,-32.124,-124.274,-71.75C-55.64,-111.376,55.64,-111.376,124.275,-71.75Z" /></g><g id="i13" transform="matrix(1,0,0,1,193.16,111.626)"><path fill="#7878ff" d="M30.908,-17.845C47.978,-7.99,47.978,7.989,30.908,17.844C13.838,27.7,-13.838,27.7,-30.907,17.844C-47.977,7.989,-47.977,-7.99,-30.907,-17.845C-13.838,-27.7,13.838,-27.7,30.908,-17.845Z" /></g><g id="i14" transform="matrix(1,0,0,1,193.16,111.626)"><path fill="#000000" fill-rule="evenodd" d="M-30.908,-17.845C-13.838,-27.7,13.838,-27.7,30.908,-17.845C47.977,-7.99,47.977,7.989,30.908,17.844C13.838,27.7,-13.838,27.7,-30.908,17.844C-47.978,7.989,-47.978,-7.99,-30.908,-17.845ZM-41.3,-23.845C-64.073,-10.697,-64.073,10.696,-41.3,23.844C-18.528,36.992,18.527,36.992,41.3,23.844C64.073,10.696,64.073,-10.697,41.3,-23.845C18.527,-36.993,-18.528,-36.993,-41.3,-23.845Z" /></g><g id="i15" transform="matrix(1,0,0,1,193.16,111.626)"><path fill="#ffffff" d="M3.764,-2.173C5.843,-0.973,5.843,0.973,3.764,2.173C1.685,3.373,-1.686,3.373,-3.764,2.173C-5.843,0.973,-5.843,-0.973,-3.764,-2.173C-1.686,-3.373,1.685,-3.373,3.764,-2.173Z" /></g></g></g></g></g></g><g opacity="0" visibility="hidden" id="i22"><animate repeatCount="indefinite" begin="0s" calcMode="discrete" dur="1.792s" values="hidden; visible; visible" keyTimes="0; 0.140026; 1" attributeName="visibility" /><animate repeatCount="indefinite" attributeName="opacity" dur="1.792s" begin="0s" fill="freeze" values="0; 0; 1; 1; 0" keyTimes="0; 0.627907; 0.674418; 1; 1" keySplines="0 0 1 1; 0.167 0 0.833 1; 0.333 0 0.833 1; 0.333 0 0.667 1" calcMode="spline" /><g transform="translate(943,369)"><animateTransform repeatCount="indefinite" type="translate" attributeName="transform" dur="1.792s" begin="0s" calcMode="spline" values="943 369; 943 369; 943 667" keyTimes="0; 0.625884; 1" keySplines="0 0 1 1; 0.707 0 0.833 0.833" fill="freeze" /><g transform="rotate(0)"><animateTransform repeatCount="indefinite" type="rotate" attributeName="transform" dur="1.792s" begin="0s" calcMode="spline" values="0; 0; -37; 0" keyTimes="0; 0.625884; 0.959558; 1" keySplines="0 0 1 1; 0.333 0 0.667 1; 0.333 0 0.667 1" fill="freeze" /><g filter="url(#f4)" id="f23"><g transform="scale(1,1) translate(-193.5,-112)"><g id="i12" transform="matrix(1,0,0,1,193.16,111.626)"><path fill="#373737" d="M124.275,-71.75C192.91,-32.124,192.91,32.123,124.275,71.75C55.64,111.376,-55.64,111.376,-124.274,71.75C-192.91,32.123,-192.91,-32.124,-124.274,-71.75C-55.64,-111.376,55.64,-111.376,124.275,-71.75Z" /></g><g id="i13" transform="matrix(1,0,0,1,193.16,111.626)"><path fill="#7878ff" d="M30.908,-17.845C47.978,-7.99,47.978,7.989,30.908,17.844C13.838,27.7,-13.838,27.7,-30.907,17.844C-47.977,7.989,-47.977,-7.99,-30.907,-17.845C-13.838,-27.7,13.838,-27.7,30.908,-17.845Z" /></g><g id="i14" transform="matrix(1,0,0,1,193.16,111.626)"><path fill="#000000" fill-rule="evenodd" d="M-30.908,-17.845C-13.838,-27.7,13.838,-27.7,30.908,-17.845C47.977,-7.99,47.977,7.989,30.908,17.844C13.838,27.7,-13.838,27.7,-30.908,17.844C-47.978,7.989,-47.978,-7.99,-30.908,-17.845ZM-41.3,-23.845C-64.073,-10.697,-64.073,10.696,-41.3,23.844C-18.528,36.992,18.527,36.992,41.3,23.844C64.073,10.696,64.073,-10.697,41.3,-23.845C18.527,-36.993,-18.528,-36.993,-41.3,-23.845Z" /></g><g id="i15" transform="matrix(1,0,0,1,193.16,111.626)"><path fill="#ffffff" d="M3.764,-2.173C5.843,-0.973,5.843,0.973,3.764,2.173C1.685,3.373,-1.686,3.373,-3.764,2.173C-5.843,0.973,-5.843,-0.973,-3.764,-2.173C-1.686,-3.373,1.685,-3.373,3.764,-2.173Z" /></g></g></g></g></g></g><g opacity="0" visibility="hidden" id="i24"><animate repeatCount="indefinite" begin="0s" calcMode="discrete" dur="1.792s" values="hidden; visible; visible" keyTimes="0; 0.140026; 1" attributeName="visibility" /><animate repeatCount="indefinite" attributeName="opacity" dur="1.792s" begin="0s" fill="freeze" values="0; 0; 1; 1" keyTimes="0; 0.767442; 0.813953; 1" keySplines="0 0 1 1; 0.167 0 0.833 1; 0 0 1 1" calcMode="spline" /><g transform="translate(943,369)"><animateTransform repeatCount="indefinite" type="translate" attributeName="transform" dur="1.792s" begin="0s" calcMode="spline" values="943 369; 943 369; 943 667" keyTimes="0; 0.767442; 1" keySplines="0 0 1 1; 0.707 0 0.833 0.833" fill="freeze" /><g transform="rotate(0)"><animateTransform repeatCount="indefinite" type="rotate" attributeName="transform" dur="1.792s" begin="0s" calcMode="spline" values="0; 0; 37; 0" keyTimes="0; 0.76493; 1; 1" keySplines="0 0 1 1; 0.333 0 0.667 1; 0.333 0 0.667 1" fill="freeze" /><g filter="url(#f5)" id="f25"><g transform="scale(1,1) translate(-193.5,-112)"><g id="i12" transform="matrix(1,0,0,1,193.16,111.626)"><path fill="#373737" d="M124.275,-71.75C192.91,-32.124,192.91,32.124,124.275,71.75C55.64,111.376,-55.64,111.376,-124.274,71.75C-192.91,32.124,-192.91,-32.124,-124.274,-71.75C-55.64,-111.376,55.64,-111.376,124.275,-71.75Z" /></g><g id="i13" transform="matrix(1,0,0,1,193.16,111.626)"><path fill="#7878ff" d="M30.908,-17.845C47.978,-7.99,47.978,7.989,30.908,17.844C13.838,27.7,-13.838,27.7,-30.907,17.844C-47.977,7.989,-47.977,-7.99,-30.907,-17.845C-13.838,-27.7,13.838,-27.7,30.908,-17.845Z" /></g><g id="i14" transform="matrix(1,0,0,1,193.16,111.626)"><path fill="#000000" fill-rule="evenodd" d="M-30.908,-17.845C-13.838,-27.7,13.838,-27.7,30.908,-17.845C47.977,-7.99,47.977,7.988,30.908,17.844C13.838,27.699,-13.838,27.699,-30.908,17.844C-47.978,7.988,-47.978,-7.99,-30.908,-17.845ZM-41.3,-23.845C-64.073,-10.697,-64.073,10.696,-41.3,23.844C-18.528,36.992,18.527,36.992,41.3,23.844C64.073,10.696,64.073,-10.698,41.3,-23.845C18.527,-36.993,-18.528,-36.993,-41.3,-23.845Z" /></g><g id="i15" transform="matrix(1,0,0,1,193.16,111.626)"><path fill="#ffffff" d="M3.764,-2.173C5.843,-0.973,5.843,0.973,3.764,2.173C1.685,3.373,-1.686,3.373,-3.764,2.173C-5.843,0.973,-5.843,-0.973,-3.764,-2.173C-1.686,-3.373,1.685,-3.373,3.764,-2.173Z" /></g></g></g></g></g></g><g opacity="0" visibility="hidden" id="i26"><animate repeatCount="indefinite" begin="0s" calcMode="discrete" dur="1.792s" values="hidden; visible; visible" keyTimes="0; 0.140026; 1" attributeName="visibility" /><animate repeatCount="indefinite" attributeName="opacity" dur="1.792s" begin="0s" fill="freeze" values="0; 0; 1; 1" keyTimes="0; 0.930233; 0.976744; 1" keySplines="0 0 1 1; 0.167 0 0.833 1; 0 0 1 1" calcMode="spline" /><g transform="translate(943,369)"><animateTransform repeatCount="indefinite" type="translate" attributeName="transform" dur="1.792s" begin="0s" calcMode="spline" values="943 369; 943 369; 943 667" keyTimes="0; 0.931744; 1" keySplines="0 0 1 1; 0.707 0 0.833 0.833" fill="freeze" /><g transform="rotate(0)"><animateTransform repeatCount="indefinite" type="rotate" attributeName="transform" dur="1.792s" begin="0s" calcMode="spline" values="0; 0; -37; 0" keyTimes="0; 0.930233; 1; 1" keySplines="0 0 1 1; 0.333 0 0.667 1; 0.333 0 0.667 1" fill="freeze" /><g filter="url(#f6)" id="f27"><g transform="scale(1,1) translate(-193.5,-112)"><g id="i12" transform="matrix(1,0,0,1,193.16,111.626)"><path fill="#373737" d="M124.275,-71.75C192.91,-32.124,192.91,32.123,124.275,71.75C55.64,111.376,-55.64,111.376,-124.274,71.75C-192.91,32.123,-192.91,-32.124,-124.274,-71.75C-55.64,-111.376,55.64,-111.376,124.275,-71.75Z" /></g><g id="i13" transform="matrix(1,0,0,1,193.16,111.626)"><path fill="#7878ff" d="M30.908,-17.845C47.978,-7.99,47.978,7.989,30.908,17.844C13.838,27.7,-13.838,27.7,-30.907,17.844C-47.977,7.989,-47.977,-7.99,-30.907,-17.845C-13.838,-27.7,13.838,-27.7,30.908,-17.845Z" /></g><g id="i14" transform="matrix(1,0,0,1,193.16,111.626)"><path fill="#000000" fill-rule="evenodd" d="M-30.908,-17.845C-13.838,-27.7,13.838,-27.7,30.908,-17.845C47.977,-7.99,47.977,7.989,30.908,17.844C13.838,27.7,-13.838,27.7,-30.908,17.844C-47.978,7.989,-47.978,-7.99,-30.908,-17.845ZM-41.3,-23.845C-64.073,-10.697,-64.073,10.696,-41.3,23.844C-18.528,36.992,18.527,36.992,41.3,23.844C64.073,10.696,64.073,-10.697,41.3,-23.845C18.527,-36.993,-18.528,-36.993,-41.3,-23.845Z" /></g><g id="i15" transform="matrix(1,0,0,1,193.16,111.626)"><path fill="#ffffff" d="M3.764,-2.173C5.843,-0.973,5.843,0.973,3.764,2.173C1.685,3.373,-1.686,3.373,-3.764,2.173C-5.843,0.973,-5.843,-0.973,-3.764,-2.173C-1.686,-3.373,1.685,-3.373,3.764,-2.173Z" /></g></g></g></g></g></g><g opacity="0" visibility="hidden" id="i28"><animate repeatCount="indefinite" begin="0s" calcMode="discrete" dur="1.792s" values="hidden; visible; visible" keyTimes="0; 0.581108; 1" attributeName="visibility" /><animate repeatCount="indefinite" attributeName="opacity" dur="1.792s" begin="0s" fill="freeze" values="0; 0; 1; 1; 0" keyTimes="0; 1; 1; 1; 1" keySplines="0 0 1 1; 0.167 0 0.833 1; 0.333 0 0.833 1; 0.333 0 0.667 1" calcMode="spline" /><g transform="translate(943,369)"><animateTransform repeatCount="indefinite" type="translate" attributeName="transform" dur="1.792s" begin="0s" calcMode="spline" values="943 369; 943 369; 943 667" keyTimes="0; 1; 1" keySplines="0 0 1 1; 0.707 0 0.833 0.833" fill="freeze" /><g transform="rotate(0)"><animateTransform repeatCount="indefinite" type="rotate" attributeName="transform" dur="1.792s" begin="0s" calcMode="spline" values="0; 0; -37; 0" keyTimes="0; 1; 1; 1" keySplines="0 0 1 1; 0.333 0 0.667 1; 0.333 0 0.667 1" fill="freeze" /><g filter="url(#f7)" id="f29"><g transform="scale(1,1) translate(-193.5,-112)"><g id="i12" transform="matrix(1,0,0,1,193.16,111.626)"><path fill="#373737" d="M124.275,-71.75C192.91,-32.124,192.91,32.123,124.275,71.75C55.64,111.376,-55.64,111.376,-124.274,71.75C-192.91,32.123,-192.91,-32.124,-124.274,-71.75C-55.64,-111.376,55.64,-111.376,124.275,-71.75Z" /></g><g id="i13" transform="matrix(1,0,0,1,193.16,111.626)"><path fill="#7878ff" d="M30.908,-17.845C47.978,-7.99,47.978,7.989,30.908,17.844C13.838,27.7,-13.838,27.7,-30.907,17.844C-47.977,7.989,-47.977,-7.99,-30.907,-17.845C-13.838,-27.7,13.838,-27.7,30.908,-17.845Z" /></g><g id="i14" transform="matrix(1,0,0,1,193.16,111.626)"><path fill="#000000" fill-rule="evenodd" d="M-30.908,-17.845C-13.838,-27.7,13.838,-27.7,30.908,-17.845C47.977,-7.99,47.977,7.989,30.908,17.844C13.838,27.7,-13.838,27.7,-30.908,17.844C-47.978,7.989,-47.978,-7.99,-30.908,-17.845ZM-41.3,-23.845C-64.073,-10.697,-64.073,10.696,-41.3,23.844C-18.528,36.992,18.527,36.992,41.3,23.844C64.073,10.696,64.073,-10.697,41.3,-23.845C18.527,-36.993,-18.528,-36.993,-41.3,-23.845Z" /></g><g id="i15" transform="matrix(1,0,0,1,193.16,111.626)"><path fill="#ffffff" d="M3.764,-2.173C5.843,-0.973,5.843,0.973,3.764,2.173C1.685,3.373,-1.686,3.373,-3.764,2.173C-5.843,0.973,-5.843,-0.973,-3.764,-2.173C-1.686,-3.373,1.685,-3.373,3.764,-2.173Z" /></g></g></g></g></g></g><g opacity="0" visibility="hidden" id="i30"><animate repeatCount="indefinite" begin="0s" calcMode="discrete" dur="1.792s" values="hidden; visible; visible" keyTimes="0; 0.581108; 1" attributeName="visibility" /><animate repeatCount="indefinite" attributeName="opacity" dur="1.792s" begin="0s" fill="freeze" values="0; 0; 1" keyTimes="0; 1; 1" keySplines="0 0 1 1; 0.167 0 0.833 1" calcMode="spline" /><g transform="translate(943,369)"><animateTransform repeatCount="indefinite" type="translate" attributeName="transform" dur="1.792s" begin="0s" calcMode="spline" values="943 369; 943 369; 943 667" keyTimes="0; 1; 1" keySplines="0 0 1 1; 0.707 0 0.833 0.833" fill="freeze" /><g transform="rotate(0)"><animateTransform repeatCount="indefinite" type="rotate" attributeName="transform" dur="1.792s" begin="0s" calcMode="spline" values="0; 0; 37; 0" keyTimes="0; 1; 1; 1" keySplines="0 0 1 1; 0.333 0 0.667 1; 0.333 0 0.667 1" fill="freeze" /><g filter="url(#f8)" id="f31"><g transform="scale(1,1) translate(-193.5,-112)"><g id="i12" transform="matrix(1,0,0,1,193.16,111.626)"><path fill="#373737" d="M124.275,-71.75C192.91,-32.124,192.91,32.124,124.275,71.75C55.64,111.376,-55.64,111.376,-124.274,71.75C-192.91,32.124,-192.91,-32.124,-124.274,-71.75C-55.64,-111.376,55.64,-111.376,124.275,-71.75Z" /></g><g id="i13" transform="matrix(1,0,0,1,193.16,111.626)"><path fill="#7878ff" d="M30.908,-17.845C47.978,-7.99,47.978,7.989,30.908,17.844C13.838,27.7,-13.838,27.7,-30.907,17.844C-47.977,7.989,-47.977,-7.99,-30.907,-17.845C-13.838,-27.7,13.838,-27.7,30.908,-17.845Z" /></g><g id="i14" transform="matrix(1,0,0,1,193.16,111.626)"><path fill="#000000" fill-rule="evenodd" d="M-30.908,-17.845C-13.838,-27.7,13.838,-27.7,30.908,-17.845C47.977,-7.99,47.977,7.988,30.908,17.844C13.838,27.699,-13.838,27.699,-30.908,17.844C-47.978,7.988,-47.978,-7.99,-30.908,-17.845ZM-41.3,-23.845C-64.073,-10.697,-64.073,10.696,-41.3,23.844C-18.528,36.992,18.527,36.992,41.3,23.844C64.073,10.696,64.073,-10.698,41.3,-23.845C18.527,-36.993,-18.528,-36.993,-41.3,-23.845Z" /></g><g id="i15" transform="matrix(1,0,0,1,193.16,111.626)"><path fill="#ffffff" d="M3.764,-2.173C5.843,-0.973,5.843,0.973,3.764,2.173C1.685,3.373,-1.686,3.373,-3.764,2.173C-5.843,0.973,-5.843,-0.973,-3.764,-2.173C-1.686,-3.373,1.685,-3.373,3.764,-2.173Z" /></g></g></g></g></g></g><g opacity="0" visibility="hidden" id="i32"><animate repeatCount="indefinite" begin="0s" calcMode="discrete" dur="1.792s" values="hidden; visible; visible" keyTimes="0; 0.581108; 1" attributeName="visibility" /><animate repeatCount="indefinite" attributeName="opacity" dur="1.792s" begin="0s" fill="freeze" values="0; 0; 1" keyTimes="0; 1; 1" keySplines="0 0 1 1; 0.167 0 0.833 1" calcMode="spline" /><g transform="translate(943,369)"><animateTransform repeatCount="indefinite" type="translate" attributeName="transform" dur="1.792s" begin="0s" calcMode="spline" values="943 369; 943 369; 943 667" keyTimes="0; 1; 1" keySplines="0 0 1 1; 0.707 0 0.833 0.833" fill="freeze" /><g transform="rotate(0)"><animateTransform repeatCount="indefinite" type="rotate" attributeName="transform" dur="1.792s" begin="0s" calcMode="spline" values="0; 0; -37; 0" keyTimes="0; 1; 1; 1" keySplines="0 0 1 1; 0.333 0 0.667 1; 0.333 0 0.667 1" fill="freeze" /><g filter="url(#f9)" id="f33"><g transform="scale(1,1) translate(-193.5,-112)"><g id="i12" transform="matrix(1,0,0,1,193.16,111.626)"><path fill="#373737" d="M124.275,-71.75C192.91,-32.124,192.91,32.123,124.275,71.75C55.64,111.376,-55.64,111.376,-124.274,71.75C-192.91,32.123,-192.91,-32.124,-124.274,-71.75C-55.64,-111.376,55.64,-111.376,124.275,-71.75Z" /></g><g id="i13" transform="matrix(1,0,0,1,193.16,111.626)"><path fill="#7878ff" d="M30.908,-17.845C47.978,-7.99,47.978,7.989,30.908,17.844C13.838,27.7,-13.838,27.7,-30.907,17.844C-47.977,7.989,-47.977,-7.99,-30.907,-17.845C-13.838,-27.7,13.838,-27.7,30.908,-17.845Z" /></g><g id="i14" transform="matrix(1,0,0,1,193.16,111.626)"><path fill="#000000" fill-rule="evenodd" d="M-30.908,-17.845C-13.838,-27.7,13.838,-27.7,30.908,-17.845C47.977,-7.99,47.977,7.989,30.908,17.844C13.838,27.7,-13.838,27.7,-30.908,17.844C-47.978,7.989,-47.978,-7.99,-30.908,-17.845ZM-41.3,-23.845C-64.073,-10.697,-64.073,10.696,-41.3,23.844C-18.528,36.992,18.527,36.992,41.3,23.844C64.073,10.696,64.073,-10.697,41.3,-23.845C18.527,-36.993,-18.528,-36.993,-41.3,-23.845Z" /></g><g id="i15" transform="matrix(1,0,0,1,193.16,111.626)"><path fill="#ffffff" d="M3.764,-2.173C5.843,-0.973,5.843,0.973,3.764,2.173C1.685,3.373,-1.686,3.373,-3.764,2.173C-5.843,0.973,-5.843,-0.973,-3.764,-2.173C-1.686,-3.373,1.685,-3.373,3.764,-2.173Z" /></g></g></g></g></g></g><g id="i34"><g transform="translate(943,369)"><animateTransform repeatCount="indefinite" type="translate" attributeName="transform" dur="1.792s" begin="0s" calcMode="spline" values="943 369; 943 369; 943 341; 943 369; 943 341; 943 369; 943 341; 943 369; 943 341; 943 369" keyTimes="0; 0.395349; 0.504047; 0.634465; 0.76493; 0.895349; 1; 1; 1; 1" keySplines="0 0 1 1; 0 0 0 1; 0.859 0 1 1; 0 0 0 1; 1 0 0.667 1; 0 0 0 1; 0.859 0 1 1; 0 0 0 1; 1 0 1 1" fill="freeze" /><g filter="url(#f10)" transform="scale(1.01,1.01) translate(-193.5,-112)"><g id="i12" transform="matrix(1,0,0,1,193.16,111.626)"><path fill="#373737" d="M124.275,-71.75C192.91,-32.124,192.91,32.123,124.275,71.75C55.64,111.376,-55.64,111.376,-124.274,71.75C-192.91,32.123,-192.91,-32.124,-124.274,-71.75C-55.64,-111.376,55.64,-111.376,124.275,-71.75Z" /></g><g id="i13" transform="matrix(1,0,0,1,193.16,111.626)"><path fill="#7878ff" d="M30.908,-17.845C47.978,-7.99,47.978,7.989,30.908,17.844C13.838,27.7,-13.838,27.7,-30.907,17.844C-47.977,7.989,-47.977,-7.99,-30.907,-17.845C-13.838,-27.7,13.838,-27.7,30.908,-17.845Z" /></g><g id="i14" transform="matrix(1,0,0,1,193.16,111.626)"><path fill="#000000" fill-rule="evenodd" d="M-30.908,-17.845C-13.838,-27.7,13.838,-27.7,30.908,-17.845C47.977,-7.99,47.977,7.989,30.908,17.844C13.838,27.7,-13.838,27.7,-30.908,17.844C-47.978,7.989,-47.978,-7.99,-30.908,-17.845ZM-41.3,-23.845C-64.073,-10.697,-64.073,10.696,-41.3,23.844C-18.528,36.992,18.527,36.992,41.3,23.844C64.073,10.696,64.073,-10.697,41.3,-23.845C18.527,-36.993,-18.528,-36.993,-41.3,-23.845Z" /></g><g id="i15" transform="matrix(1,0,0,1,193.16,111.626)"><path fill="#ffffff" d="M3.764,-2.173C5.843,-0.973,5.843,0.973,3.764,2.173C1.685,3.373,-1.686,3.373,-3.764,2.173C-5.843,0.973,-5.843,-0.973,-3.764,-2.173C-1.686,-3.373,1.685,-3.373,3.764,-2.173Z" /></g></g></g></g></svg>