<svg width="200" height="79" viewBox="0 0 200 79" fill="none" xmlns="http://www.w3.org/2000/svg">
<rect width="200" height="79" rx="39.5" fill="#1A281C"/>
<rect x="0.5" y="0.5" width="199" height="78" rx="39" stroke="white" stroke-opacity="0.1"/>
<g clip-path="url(#clip0_416_756)">
<path fill-rule="evenodd" clip-rule="evenodd" d="M52.6035 30.6465C44.7337 33.3132 47.801 43.8702 48.7418 50.012C48.5499 50.944 48.0881 51.808 47.4014 52.4909C46.4785 53.4084 45.2267 53.9242 43.9216 53.9242C42.6164 53.9242 41.3646 53.4084 40.4417 52.4909C39.5188 51.5732 39 50.3287 39 49.0309C39.0001 47.7333 39.5189 46.4886 40.4417 45.571C41.3646 44.6535 42.6165 44.1381 43.9216 44.1381C44.6807 44.1381 45.3977 44.306 46.0303 44.6135L43.1267 31.5909L52.6035 30.6465ZM43.9855 47.6472C43.2509 47.6472 42.6554 48.2473 42.6554 48.9875C42.6554 49.7277 43.2509 50.3277 43.9855 50.3277C44.72 50.3277 45.3155 49.7277 45.3155 48.9875C45.3155 48.2473 44.72 47.6472 43.9855 47.6472Z" fill="#55DF69"/>
<path fill-rule="evenodd" clip-rule="evenodd" d="M57.457 29.625C57.2522 30.1041 55.8052 44.0902 57.9092 48.6139C57.7613 49.328 57.4053 49.99 56.876 50.5131C56.1645 51.2162 55.1996 51.6113 54.1936 51.6113C53.1875 51.6113 52.2227 51.2162 51.5112 50.5131C50.7998 49.8101 50.3999 48.8565 50.3999 47.8622C50.4 46.868 50.7999 45.9143 51.5112 45.2113C52.2227 44.5084 53.1876 44.1135 54.1936 44.1135C54.7788 44.1135 54.6813 44.1135 54.7428 44.1135L52.7586 30.1807L57.457 29.625ZM54.2428 46.8021C53.6767 46.8021 53.2176 47.2619 53.2176 47.829C53.2176 48.3961 53.6767 48.8557 54.2428 48.8557C54.809 48.8557 55.2681 48.3961 55.2681 47.829C55.2681 47.2619 54.809 46.8021 54.2428 46.8021Z" fill="#55DF69"/>
<path d="M42.8786 30.4244C42.7593 29.3382 58.1528 27.363 57.8875 28.2022C57.6064 29.0911 57.3816 30.0356 57.3816 30.0356L43.2159 32.0355C43.2159 32.0355 42.9488 31.0632 42.8786 30.4244Z" fill="#55DF69"/>
<path d="M44.5651 35.1469C44.5459 35.0145 44.5261 34.8822 44.5058 34.75C44.3227 33.5604 44.0952 32.3808 43.8233 31.2113C43.8069 31.1404 43.7902 31.0695 43.7734 30.9986L43.6392 31.1994C44.7609 30.9956 45.8755 30.7528 46.9831 30.4708C47.1141 30.4375 47.245 30.4036 47.3758 30.3691C47.241 30.3817 47.1063 30.3948 46.9718 30.4085C45.834 30.524 44.7034 30.6786 43.5799 30.8722L43.4055 30.9039L43.4456 31.073C43.4618 31.144 43.4781 31.215 43.4946 31.286C43.7665 32.4554 44.0827 33.6149 44.4433 34.7642C44.4834 34.8919 44.524 35.0195 44.5651 35.1469Z" fill="#2D933B"/>
<path d="M54.7957 38.1497C54.7869 38.0241 54.7775 37.8986 54.7675 37.7733C54.6825 36.699 54.5565 35.6311 54.3899 34.5696L54.3904 34.5728C54.383 34.5191 54.3757 34.4655 54.3681 34.4118C54.2109 33.2941 54.0087 32.1826 53.7613 31.0772C53.7339 30.9544 53.7058 30.8316 53.6772 30.709C53.6836 30.8347 53.6905 30.9603 53.6978 31.0858C53.7649 32.2158 53.8769 33.3396 54.0341 34.4572C54.0416 34.5109 54.0493 34.5645 54.057 34.6182L54.0575 34.6214C54.2323 35.6817 54.4479 36.7356 54.7043 37.7831C54.7342 37.9054 54.7646 38.0276 54.7957 38.1497Z" fill="#2D933B"/>
</g>
<path d="M73.5 31.5V45H82.5V49.5H69V31.5H73.5ZM97.98 31.5V49.5H84.48V31.5H97.98ZM88.98 36V45H93.48V36H88.98ZM113.46 31.5V49.5H99.96V31.5H113.46ZM104.46 36V45H108.96V36H104.46ZM128.94 31.5V45H119.94V49.5H115.44V31.5H128.94ZM119.94 36V40.5H124.44V36H119.94ZM144.42 31.5V36H139.92V40.5H135.42V45H144.42V49.5H130.92V31.5H144.42ZM159.9 31.5V40.5H155.4V36H150.9V40.5H155.4V45H150.9V49.5H146.4V31.5H159.9ZM159.9 45V49.5H155.4V45H159.9Z" fill="white"/>
<rect x="155" y="45" width="5" height="5" fill="#55DF69"/>
<defs>
<clipPath id="clip0_416_756">
<rect width="19" height="26" fill="white" transform="translate(39 28)"/>
</clipPath>
</defs>
</svg>
