<svg width="107" height="44" viewBox="0 0 107 44" fill="none" xmlns="http://www.w3.org/2000/svg">
<path d="M15 0V20H0V0H15ZM5 5V15H10V5H5ZM28.4 0V5H23.4V20H18.4V0H28.4ZM33.4 5V20H28.4V5H33.4ZM51.8 0V5H46.8V10H41.8V15H51.8V20H36.8V0H51.8ZM15 24V39H5V44H0V24H15ZM5 29V34H10V29H5ZM23.4 24V39H33.4V44H18.4V24H23.4ZM51.8 24V44H46.8V39H41.8V44H36.8V24H51.8ZM41.8 29V34H46.8V29H41.8ZM60.2 24V34H55.2V24H60.2ZM70.2 24V34H65.2V24H70.2ZM65.2 34V44H60.2V34H65.2ZM88.6 24V29H83.6V34H78.6V39H88.6V44H73.6V24H88.6ZM107 24V34H102V29H97V34H102V39H97V44H92V24H107ZM107 39V44H102V39H107Z" fill="white"/>
</svg>
