<svg width="819" height="259" viewBox="0 0 819 259" fill="none" xmlns="http://www.w3.org/2000/svg">
<circle cx="28" cy="28" r="25.5" fill="#3F3F3F" stroke="#909090"/>
<rect x="1" y="1" width="257" height="257" rx="128.5" fill="#161616" stroke="url(#paint0_linear_472_1158)" stroke-width="2"/>
<path d="M180.68 12.9682C213.195 31.5048 228.543 44.9075 246.073 79.0958L127.35 132.023L77.7229 245.574C42.9812 226.387 28.5517 211.772 12.3306 179.446L127.35 132.023L180.68 12.9682Z" fill="url(#paint1_linear_472_1158)" fill-opacity="0.2"/>
<rect x="82" y="82" width="95" height="95" rx="47.5" fill="#101010"/>
<rect x="86" y="86" width="87" height="87" rx="43.5" fill="#41C25E"/>
<g filter="url(#filter0_dii_472_1158)">
<rect width="9" height="9" rx="4.5" transform="matrix(1 0 0 -1 125 134)" fill="white"/>
</g>
<path d="M18.0786 85.9669C24.4624 70.7725 31.0496 59.0596 45.2988 44.7157C60.2843 31.2855 62.8983 29.1597 83.8279 19.5126C99.7403 12.836 117.101 10.5813 129 10.6948C133.11 10.6957 136.557 10.8972 139.182 11.1022C149.39 12.1896 150.566 12.2118 164.595 16.164C178.482 20.6582 186.437 24.8865 196.961 32.066C208.559 38.1399 234.133 68.6429 238.372 82.6409C244.3 95.655 247.286 111.855 247.774 121.59C247.975 124.645 248.019 127.01 248.023 128.858C248.024 129.638 248.01 130 247.998 130C247.998 130 247.998 130 247.998 130C247.982 130 247.97 129.439 247.955 128.438C247.886 123.607 247.469 116.327 245.831 107.932C242.157 92.4859 242.323 90.361 232.349 71.3046C221.179 53.0272 212.305 42.7273 191.2 28.8338C169.444 17.0868 163.345 13.31 129 11.321C128.545 11.3191 128.085 11.3196 127.621 11.3227C92.2984 14.0228 87.4026 16.0457 57.8683 35.2073C27.7168 55.7386 10.3769 100.467 10.6525 121.908C10.479 124.516 10.385 127.179 10.3867 130C10.2124 150.273 16.3225 176.173 31.8639 198.083C48.7531 223.444 82.9216 245.152 116.645 247.985C120.566 248.399 124.707 248.638 129 248.646C161.655 250.048 197.986 230.05 211.12 215.905C226.395 200.227 229.566 195.435 238.502 176.356C243.373 165.227 247.423 148.77 247.868 134.602C248.044 127.477 248.159 129.108 247.914 136.26C247.414 146.759 245.54 155.218 244.23 160.451C241.397 170.863 239.99 175.358 233.569 187.4C226.772 199.243 222.629 204.266 217.362 210.223C211.263 215.07 214.294 219.309 178.606 238.53C158.748 247.562 141.905 249.304 129 249.389C117.788 249.379 109.262 247.983 102.333 246.435C87.2138 243.841 57.2132 229.744 40.7981 210.456C24.2679 195.087 7.73541 154.04 9.57436 130C9.57055 126.966 9.67646 124.299 9.82476 121.967C11.9223 101.603 12.5689 101.515 18.0786 85.9669Z" fill="#A4A4A4" fill-opacity="0.04"/>
<path d="M211.101 162.592C206.362 173.828 201.55 182.541 190.987 193.16C179.881 203.098 177.925 204.637 162.437 211.785C150.66 216.734 137.806 218.39 129 218.305C125.958 218.304 123.407 218.157 121.463 218.009C113.904 217.221 113.043 217.154 102.659 214.241C92.3784 210.926 86.4916 207.789 78.7141 202.463C70.1412 197.954 51.2373 175.385 48.0829 165.038C43.6779 155.416 41.5022 143.42 41.1501 136.221C41.0035 133.96 40.9752 132.211 40.9754 130.845C40.9762 130.268 40.9902 130 41.0023 130C41.0023 130 41.0023 130 41.0023 130C41.0181 130 41.031 130.415 41.0422 131.155C41.0957 134.727 41.4109 140.11 42.6362 146.313C45.3777 157.724 45.2266 159.303 52.6121 173.383C60.8811 186.887 67.4548 194.474 83.0385 204.755C99.1114 213.452 103.634 216.171 129 217.679C129.336 217.681 129.676 217.681 130.019 217.679C156.124 215.727 159.727 214.152 181.524 199.996C203.778 184.832 216.624 151.82 216.418 135.977C216.546 134.051 216.615 132.083 216.613 130C216.738 115.024 212.22 95.8997 200.749 79.7113C188.279 60.9702 163.03 44.9593 138.126 42.8492C135.23 42.5408 132.171 42.3624 129 42.3538C104.878 41.3001 78.0199 56.0569 68.3008 66.5034C56.9992 78.0808 54.6494 81.6246 48.053 95.7322C44.4575 103.961 41.4588 116.123 41.1091 126.597C40.9686 131.865 40.8692 130.66 41.0442 125.37C41.4043 117.603 42.7969 111.347 43.7486 107.471C45.8105 99.7591 46.8402 96.4217 51.6108 87.5193C56.6586 78.7663 59.686 75.022 63.5898 70.615C68.1097 67.0296 65.8815 63.9148 92.2841 49.6712C106.977 42.9757 119.446 41.6782 129 41.611C137.3 41.6143 143.614 42.6452 148.744 43.7897C159.943 45.7059 182.142 56.164 194.299 70.436C206.543 81.8092 218.779 112.201 217.426 130C217.43 132.246 217.352 134.221 217.244 135.948C215.705 151.029 215.195 151.09 211.101 162.592Z" fill="#A4A4A4" fill-opacity="0.04"/>
<path d="M225.046 168.128C219.511 181.28 213.841 191.444 201.494 203.865C188.511 215.493 186.236 217.316 168.116 225.673C154.337 231.458 139.302 233.404 129 233.305C125.441 233.304 122.457 233.131 120.183 232.955C111.342 232.022 110.329 231.977 98.1814 228.561C86.1554 224.675 79.2681 221.011 70.1615 214.788C60.1252 209.521 37.9934 183.114 34.3144 171C29.1725 159.736 26.6047 145.706 26.1869 137.28C26.0137 134.635 25.9782 132.588 25.976 130.989C25.976 130.313 25.9902 130 26.0023 130C26.0023 130 26.0023 130 26.0023 130C26.0181 130 26.0307 130.485 26.0434 131.352C26.1045 135.533 26.4691 141.834 27.8942 149.098C31.0865 162.461 30.9284 164.304 39.5666 180.792C49.2392 196.606 56.9258 205.506 75.1811 217.534C94.0041 227.708 99.2895 230.938 129 232.679C129.394 232.681 129.792 232.681 130.193 232.678C160.758 230.364 164.987 228.572 190.528 211.994C216.603 194.233 231.624 155.552 231.384 137C231.534 134.744 231.615 132.44 231.613 130C231.762 112.461 226.474 90.0581 213.033 71.1011C198.425 49.157 168.86 30.3896 139.689 27.9296C136.296 27.5698 132.714 27.3623 129 27.3538C100.749 26.1317 69.3075 43.4245 57.9357 55.6606C44.7116 69.2223 41.9643 73.3701 34.2362 89.8831C30.0236 99.5155 26.5161 113.755 26.1201 126.017C25.9623 132.184 25.8553 130.772 26.0646 124.581C26.4924 115.492 28.1179 108.17 29.2429 103.638C31.678 94.6196 32.8899 90.7216 38.4591 80.3001C44.3537 70.052 47.9205 65.689 52.4839 60.5322C57.7681 56.3363 55.1512 52.6773 86.0471 36.0254C103.239 28.1994 117.824 26.6866 129 26.611C138.709 26.6176 146.093 27.8249 152.094 29.165C165.189 31.409 191.164 43.628 205.381 60.3272C219.699 73.6335 234.014 109.181 232.426 130C232.43 132.627 232.338 134.937 232.211 136.956C230.402 154.594 229.825 154.668 225.046 168.128Z" fill="#A4A4A4" fill-opacity="0.04"/>
<path d="M58.0553 101.837C62.1581 92.1325 66.2822 84.5814 75.4183 75.4048C85.0226 66.8174 86.7239 65.5069 100.105 59.325C110.281 55.0451 121.391 53.6213 129 53.6948C131.629 53.6956 133.833 53.8226 135.513 53.9479C142.046 54.6206 142.786 54.7038 151.759 57.2154C160.643 60.0741 165.729 62.7881 172.444 67.3963C179.846 71.3002 196.168 90.7974 198.902 99.7316C202.718 108.041 204.58 118.41 204.879 124.627C205.005 126.579 205.027 128.09 205.025 129.271C205.024 129.769 205.01 130 204.998 130C204.998 130 204.998 130 204.998 130C204.982 130 204.969 129.642 204.959 129.003C204.911 125.918 204.636 121.269 203.57 115.915C201.189 106.066 201.335 104.698 194.952 92.5438C187.805 80.8883 182.122 74.3513 168.675 65.4692C154.803 57.9519 150.89 55.6426 129 54.321C128.71 54.3191 128.417 54.3187 128.121 54.3199C105.584 55.9826 102.481 57.3848 83.6785 69.6027C64.4815 82.6893 53.3756 111.165 53.554 124.841C53.444 126.504 53.3848 128.202 53.3867 130C53.2817 142.925 57.1828 159.427 67.0788 173.401C77.838 189.579 99.6337 203.385 121.123 205.215C123.623 205.482 126.263 205.638 129 205.646C149.819 206.565 173.01 193.837 181.407 184.822C191.171 174.832 193.203 171.772 198.894 159.588C201.995 152.482 204.587 141.984 204.9 132.938C205.026 128.389 205.12 129.43 204.972 134C204.666 140.709 203.46 146.112 202.647 149.462C200.884 156.129 199.999 159.018 195.868 166.705C191.497 174.262 188.902 177.512 185.526 181.319C181.617 184.416 183.534 187.095 160.726 199.412C148.033 205.203 137.257 206.329 129 206.389C121.827 206.388 116.37 205.499 111.935 204.511C102.255 202.857 83.0754 193.807 72.567 181.477C61.9823 171.65 51.4092 145.382 52.5744 130C52.5704 128.059 52.6364 126.352 52.729 124.859C54.0519 111.824 54.5091 111.772 58.0553 101.837Z" fill="#A4A4A4" fill-opacity="0.04"/>
<path d="M25.5161 88.9194C31.4755 74.7464 37.6045 63.8078 50.9025 50.4253C64.8868 37.8961 67.331 35.922 86.8562 26.9195C101.701 20.6889 117.9 18.5887 129 18.6948C132.834 18.6957 136.05 18.8834 138.499 19.0735C148.024 20.0837 149.118 20.1173 162.207 23.8014C175.163 27.9914 182.585 31.938 192.4 38.639C203.217 44.3093 227.07 72.7647 231.029 85.8205C236.564 97.9593 239.341 113.074 239.793 122.155C239.981 125.005 240.02 127.211 240.024 128.935C240.024 129.662 240.01 130 239.998 130C239.998 130 239.998 130 239.998 130C239.982 130 239.969 129.477 239.956 128.543C239.891 124.037 239.5 117.246 237.968 109.417C234.535 95.0123 234.697 93.0283 225.391 75.2561C214.97 58.2106 206.69 48.6109 187.01 35.6497C166.72 24.6896 161.028 21.1858 129 19.321C128.575 19.3191 128.147 19.3194 127.714 19.3222C94.7701 21.8293 90.2079 23.7367 62.6702 41.6064C34.5568 60.7527 18.3767 102.458 18.6342 122.454C18.4725 124.886 18.385 127.37 18.3867 130C18.2253 148.906 23.9244 173.057 38.4155 193.491C54.1643 217.143 86.0308 237.381 117.478 240.028C121.135 240.415 124.997 240.638 129 240.646C159.453 241.958 193.339 223.313 205.592 210.122C219.842 195.502 222.801 191.032 231.133 173.236C235.674 162.856 239.453 147.507 239.874 134.292C240.041 127.646 240.152 129.168 239.925 135.84C239.461 145.634 237.711 153.524 236.494 158.407C233.859 168.121 232.55 172.318 226.555 183.55C220.209 194.596 216.354 199.289 211.439 204.845C205.747 209.367 208.572 213.316 175.279 231.252C156.755 239.681 141.041 241.309 129 241.389C118.54 241.381 110.584 240.079 104.12 238.635C90.0122 236.216 62.0248 223.058 46.7086 205.064C31.2846 190.727 15.8608 152.429 17.5744 130C17.5705 127.17 17.669 124.681 17.8069 122.506C19.7604 103.505 20.3718 103.424 25.5161 88.9194Z" fill="#A4A4A4" fill-opacity="0.04"/>
<path d="M205.523 160.378C201.102 170.848 196.634 178.98 186.784 188.877C176.429 198.141 174.601 199.565 160.166 206.23C149.19 210.845 137.207 212.384 129 212.305C126.165 212.304 123.787 212.167 121.975 212.031C114.929 211.3 114.128 211.225 104.45 208.513C94.8676 205.426 89.3811 202.5 82.1351 197.534C74.1476 193.327 56.5349 172.294 53.5903 162.653C49.4801 153.687 47.4612 142.505 47.1353 135.797C46.9995 133.69 46.974 132.061 46.9751 130.787C46.9763 130.249 46.9901 130 47.0023 130C47.0023 130 47.0023 130 47.0023 130C47.018 130 47.0311 130.386 47.0417 131.076C47.0922 134.404 47.3876 139.421 48.533 145.199C51.0942 155.829 50.9459 157.303 57.8303 170.42C65.5379 182.999 71.6664 190.061 86.1815 199.643C101.154 207.75 105.372 210.264 129 211.679C129.313 211.681 129.63 211.681 129.949 211.68C154.27 209.872 157.623 208.383 177.923 195.197C198.648 181.071 210.624 150.328 210.432 135.568C210.551 133.773 210.615 131.941 210.613 130C210.728 116.05 206.519 98.2364 195.835 83.1553C184.22 65.6954 160.698 50.7872 137.502 48.817C134.803 48.5292 131.954 48.3624 129 48.3538C106.53 47.3675 81.5049 61.11 72.4468 70.8405C61.9142 81.6242 59.7233 84.9265 53.5797 98.0719C50.2311 105.74 47.4359 117.069 47.1046 126.83C46.9711 131.738 46.8748 130.615 47.0361 125.685C47.369 118.447 48.6684 112.617 49.5509 109.005C51.4634 101.815 52.4204 98.7018 56.8714 90.407C61.5806 82.2521 64.3921 78.7551 68.0321 74.6481C72.2463 71.307 70.1736 68.4099 94.779 55.1295C108.472 48.8862 120.095 47.6748 129 47.611C136.737 47.613 142.622 48.5733 147.405 49.6395C157.844 51.4246 178.533 61.1784 189.866 74.4796C201.28 85.0794 212.685 113.409 211.426 130C211.43 132.094 211.358 133.934 211.258 135.544C209.827 149.602 209.343 149.659 205.523 160.378Z" fill="#A4A4A4" fill-opacity="0.04"/>
<path d="M218.539 165.545C213.375 177.802 208.105 187.289 196.591 198.869C184.484 209.709 182.358 211.399 165.466 219.192C152.621 224.587 138.604 226.397 129 226.305C125.682 226.304 122.9 226.143 120.781 225.98C112.538 225.115 111.595 225.06 100.271 221.878C89.0595 218.259 82.6391 214.841 74.1527 209.036C64.7993 204.123 44.1739 179.507 40.7397 168.218C35.9417 157.72 33.5569 144.639 33.1697 136.786C33.009 134.32 32.9768 132.412 32.9757 130.921C32.9761 130.292 32.9902 130 33.0023 130C33.0023 130 33.0023 130 33.0023 130C33.0181 130 33.0309 130.452 33.0428 131.26C33.1004 135.157 33.442 141.03 34.7738 147.798C37.7558 160.251 37.6009 161.97 45.6545 177.335C54.6721 192.07 61.8393 200.358 78.8479 211.57C96.3875 221.055 101.317 224.047 129 225.679C129.367 225.681 129.738 225.681 130.112 225.679C158.596 223.534 162.532 221.843 186.326 206.395C210.618 189.846 224.624 153.811 224.4 136.523C224.54 134.421 224.615 132.274 224.613 130C224.751 113.657 219.822 92.7842 207.3 75.1192C193.69 54.6698 166.139 37.1888 138.96 34.8921C135.799 34.5562 132.461 34.3623 129 34.3538C102.676 33.2103 73.3733 49.3196 62.7727 60.7206C50.4458 73.3563 47.884 77.2222 40.6841 92.6127C36.7594 101.59 33.4894 114.86 33.1149 126.288C32.9652 132.035 32.8618 130.72 33.0551 124.949C33.4513 116.477 34.9681 109.652 36.0122 105.427C38.2731 97.018 39.4 93.3817 44.5965 83.6691C50.096 74.1187 53.4111 70.0444 57.6666 65.2375C62.5941 61.3265 60.1587 57.9214 88.9577 42.3934C104.983 35.095 118.581 33.6826 129 33.611C138.052 33.616 144.936 34.741 150.531 35.9899C162.741 38.0809 186.954 49.4781 200.209 65.0447C213.559 77.4488 226.904 110.591 225.426 130C225.43 132.449 225.345 134.603 225.226 136.486C223.543 152.93 222.998 152.998 218.539 165.545Z" fill="#A4A4A4" fill-opacity="0.04"/>
<path d="M62.7037 103.682C66.5413 94.6162 70.379 87.549 78.9205 78.9733C87.8992 70.949 89.4943 69.7333 101.998 63.9544C111.507 59.9531 121.89 58.6259 129 58.6948C131.456 58.6956 133.516 58.814 135.086 58.9299C141.192 59.5544 141.882 59.6447 150.266 61.9888C158.569 64.6574 163.322 67.1953 169.593 71.5044C176.507 75.1561 191.753 93.3735 194.313 101.719C197.883 109.481 199.614 119.172 199.892 124.98C200.008 126.804 200.028 128.216 200.025 129.319C200.024 129.784 200.01 130 199.998 130C199.998 130 199.998 130 199.998 130C199.982 130 199.969 129.666 199.959 129.068C199.914 126.187 199.655 121.844 198.656 116.843C196.426 107.645 196.569 106.365 190.603 95.0134C183.925 84.128 178.612 78.0285 166.056 69.7292C153.1 62.7036 149.442 60.565 129 59.321C128.729 59.3191 128.455 59.3185 128.179 59.3196C107.128 60.8617 104.234 62.1917 86.6797 73.6022C68.7565 85.8232 58.3755 112.409 58.5426 125.182C58.44 126.735 58.3848 128.321 58.3867 130C58.2898 142.071 61.9341 157.48 71.1736 170.531C81.22 185.642 101.577 198.528 121.644 200.242C123.978 200.492 126.444 200.638 129 200.646C148.442 201.509 170.106 189.626 177.952 181.208C187.075 171.88 188.974 169.02 194.288 157.639C197.184 151 199.606 141.195 199.903 132.745C200.024 128.495 200.115 129.467 199.979 133.737C199.696 140.005 198.567 145.053 197.812 148.184C196.173 154.416 195.349 157.118 191.484 164.299C187.396 171.357 184.98 174.401 181.824 177.958C178.17 180.851 179.958 183.349 158.647 194.864C146.786 200.278 136.716 201.331 129 201.389C122.296 201.389 117.196 200.559 113.052 199.636C104.004 198.091 86.0826 189.629 76.261 178.107C66.3677 168.925 56.4875 144.376 57.5744 130C57.5704 128.186 57.6317 126.591 57.7179 125.196C58.9507 113.012 59.3858 112.965 62.7037 103.682Z" fill="#A4A4A4" fill-opacity="0.04"/>
<g filter="url(#filter1_dii_472_1158)">
<path d="M24.25 36H32.1144V138.952L50.5 164.5L43.5 169.5L24.25 142.786V36Z" fill="#D9D9D9"/>
</g>
<g filter="url(#filter2_di_472_1158)">
<circle cx="28" cy="28" r="17" fill="#BCBCBC"/>
<circle cx="28" cy="28" r="16.5" stroke="url(#paint2_linear_472_1158)"/>
</g>
<g filter="url(#filter3_di_472_1158)">
<path d="M38.2797 176.303C37.0521 175.05 37.156 173.016 38.505 171.895L52.7527 160.057C54.0909 158.945 56.0914 159.201 57.1065 160.614L75.8221 186.668C76.741 187.947 76.5143 189.719 75.3029 190.726L64.8141 199.441C63.6131 200.439 61.8473 200.348 60.7543 199.233L38.2797 176.303Z" fill="#7A7A7A"/>
<path d="M38.8245 172.28L53.0724 160.441C54.1876 159.515 55.8541 159.728 56.7 160.906L75.4163 186.959C76.182 188.025 75.9928 189.502 74.9833 190.341L64.4947 199.056C63.4939 199.888 62.0221 199.813 61.1113 198.884L38.6372 175.952C37.6142 174.909 37.7004 173.214 38.8245 172.28Z" stroke="url(#paint3_linear_472_1158)"/>
</g>
<g filter="url(#filter4_di_472_1158)">
<circle cx="52" cy="173" r="4" fill="#BCBCBC"/>
<circle cx="52" cy="173" r="3.8" stroke="url(#paint4_linear_472_1158)" stroke-width="0.4"/>
</g>
<path d="M51.2948 169.446C52.5075 169.484 53.1614 169.617 54.2391 170.235L51.9246 173.067L52.559 176.505C51.2742 176.479 50.6241 176.304 49.6148 175.716L51.9246 173.067L51.2948 169.446Z" fill="url(#paint5_linear_472_1158)" fill-opacity="0.2"/>
<path d="M11.8857 26.2418C13.4117 21.0619 14.7293 18.4052 18.6576 14.5126L28.567 27.9431L44.4444 29.4006C42.8933 34.9072 41.3962 37.4964 37.6725 41.1299L28.567 27.9431L11.8857 26.2418Z" fill="url(#paint6_linear_472_1158)" fill-opacity="0.15"/>
<path d="M48.408 173.305C48.3666 172.361 48.4575 171.859 49.01 171.059L52.0272 173.054L55.4607 172.787C55.5197 173.789 55.3863 174.285 54.8586 175.034L52.0272 173.054L48.408 173.305Z" fill="url(#paint7_linear_472_1158)" fill-opacity="0.2"/>
<g filter="url(#filter5_dii_472_1158)">
<rect width="3" height="3" rx="1.5" transform="matrix(1 0 0 -1 61 193)" fill="white"/>
<rect x="0.05" y="-0.05" width="2.9" height="2.9" rx="1.45" transform="matrix(1 0 0 -1 61 192.9)" stroke="#C1C1C1" stroke-width="0.1"/>
</g>
<g filter="url(#filter6_dii_472_1158)">
<rect width="3" height="3" rx="1.5" transform="matrix(1 0 0 -1 66 189)" fill="white"/>
<rect x="0.05" y="-0.05" width="2.9" height="2.9" rx="1.45" transform="matrix(1 0 0 -1 66 188.9)" stroke="#C1C1C1" stroke-width="0.1"/>
</g>
<path d="M314 24V99H364V124H289V24H314ZM450 24V124H375V24H450ZM400 49V99H425V49H400ZM536 24V124H461V24H536ZM486 49V99H511V49H486ZM622 24V99H572V124H547V24H622ZM572 49V74H597V49H572ZM708 24V49H683V74H658V99H708V124H633V24H708ZM794 24V74H769V49H744V74H769V99H744V124H719V24H794ZM794 99V124H769V99H794Z" fill="white"/>
<path d="M364 135V210H314V235H289V135H364ZM314 160V185H339V160H314ZM400 135V210H450V235H375V135H400ZM536 135V235H511V210H486V235H461V135H536ZM486 160V185H511V160H486ZM572 135V185H547V135H572ZM622 135V185H597V135H622ZM597 185V235H572V185H597ZM708 135V160H683V185H658V210H708V235H633V135H708ZM794 135V185H769V160H744V185H769V210H744V235H719V135H794ZM794 210V235H769V210H794Z" fill="white"/>
<rect x="769" y="210" width="26" height="26" fill="#41C25E"/>
<rect x="769" y="99" width="26" height="26" fill="#41C25E"/>
<defs>
<filter id="filter0_dii_472_1158" x="124" y="124" width="14" height="14" filterUnits="userSpaceOnUse" color-interpolation-filters="sRGB">
<feFlood flood-opacity="0" result="BackgroundImageFix"/>
<feColorMatrix in="SourceAlpha" type="matrix" values="0 0 0 0 0 0 0 0 0 0 0 0 0 0 0 0 0 0 127 0" result="hardAlpha"/>
<feOffset dx="2" dy="2"/>
<feGaussianBlur stdDeviation="1"/>
<feComposite in2="hardAlpha" operator="out"/>
<feColorMatrix type="matrix" values="0 0 0 0 0 0 0 0 0 0 0 0 0 0 0 0 0 0 0.25 0"/>
<feBlend mode="normal" in2="BackgroundImageFix" result="effect1_dropShadow_472_1158"/>
<feBlend mode="normal" in="SourceGraphic" in2="effect1_dropShadow_472_1158" result="shape"/>
<feColorMatrix in="SourceAlpha" type="matrix" values="0 0 0 0 0 0 0 0 0 0 0 0 0 0 0 0 0 0 127 0" result="hardAlpha"/>
<feOffset dx="1" dy="1"/>
<feGaussianBlur stdDeviation="1"/>
<feComposite in2="hardAlpha" operator="arithmetic" k2="-1" k3="1"/>
<feColorMatrix type="matrix" values="0 0 0 0 0 0 0 0 0 0 0 0 0 0 0 0 0 0 0.67 0"/>
<feBlend mode="normal" in2="shape" result="effect2_innerShadow_472_1158"/>
<feColorMatrix in="SourceAlpha" type="matrix" values="0 0 0 0 0 0 0 0 0 0 0 0 0 0 0 0 0 0 127 0" result="hardAlpha"/>
<feOffset dx="-1" dy="-1"/>
<feGaussianBlur stdDeviation="1"/>
<feComposite in2="hardAlpha" operator="arithmetic" k2="-1" k3="1"/>
<feColorMatrix type="matrix" values="0 0 0 0 0 0 0 0 0 0 0 0 0 0 0 0 0 0 0.41 0"/>
<feBlend mode="normal" in2="effect2_innerShadow_472_1158" result="effect3_innerShadow_472_1158"/>
</filter>
<filter id="filter1_dii_472_1158" x="17.25" y="30" width="46.25" height="153.5" filterUnits="userSpaceOnUse" color-interpolation-filters="sRGB">
<feFlood flood-opacity="0" result="BackgroundImageFix"/>
<feColorMatrix in="SourceAlpha" type="matrix" values="0 0 0 0 0 0 0 0 0 0 0 0 0 0 0 0 0 0 127 0" result="hardAlpha"/>
<feOffset dx="3" dy="4"/>
<feGaussianBlur stdDeviation="5"/>
<feComposite in2="hardAlpha" operator="out"/>
<feColorMatrix type="matrix" values="0 0 0 0 0 0 0 0 0 0 0 0 0 0 0 0 0 0 0.25 0"/>
<feBlend mode="normal" in2="BackgroundImageFix" result="effect1_dropShadow_472_1158"/>
<feBlend mode="normal" in="SourceGraphic" in2="effect1_dropShadow_472_1158" result="shape"/>
<feColorMatrix in="SourceAlpha" type="matrix" values="0 0 0 0 0 0 0 0 0 0 0 0 0 0 0 0 0 0 127 0" result="hardAlpha"/>
<feOffset dx="2" dy="4"/>
<feGaussianBlur stdDeviation="1"/>
<feComposite in2="hardAlpha" operator="arithmetic" k2="-1" k3="1"/>
<feColorMatrix type="matrix" values="0 0 0 0 0 0 0 0 0 0 0 0 0 0 0 0 0 0 0.7 0"/>
<feBlend mode="normal" in2="shape" result="effect2_innerShadow_472_1158"/>
<feColorMatrix in="SourceAlpha" type="matrix" values="0 0 0 0 0 0 0 0 0 0 0 0 0 0 0 0 0 0 127 0" result="hardAlpha"/>
<feOffset dx="-3" dy="4"/>
<feGaussianBlur stdDeviation="2"/>
<feComposite in2="hardAlpha" operator="arithmetic" k2="-1" k3="1"/>
<feColorMatrix type="matrix" values="0 0 0 0 0 0 0 0 0 0 0 0 0 0 0 0 0 0 0.46 0"/>
<feBlend mode="normal" in2="effect2_innerShadow_472_1158" result="effect3_innerShadow_472_1158"/>
</filter>
<filter id="filter2_di_472_1158" x="3" y="7" width="52" height="56" filterUnits="userSpaceOnUse" color-interpolation-filters="sRGB">
<feFlood flood-opacity="0" result="BackgroundImageFix"/>
<feColorMatrix in="SourceAlpha" type="matrix" values="0 0 0 0 0 0 0 0 0 0 0 0 0 0 0 0 0 0 127 0" result="hardAlpha"/>
<feOffset dx="1" dy="9"/>
<feGaussianBlur stdDeviation="4.5"/>
<feComposite in2="hardAlpha" operator="out"/>
<feColorMatrix type="matrix" values="0 0 0 0 0 0 0 0 0 0 0 0 0 0 0 0 0 0 0.7 0"/>
<feBlend mode="normal" in2="BackgroundImageFix" result="effect1_dropShadow_472_1158"/>
<feBlend mode="normal" in="SourceGraphic" in2="effect1_dropShadow_472_1158" result="shape"/>
<feColorMatrix in="SourceAlpha" type="matrix" values="0 0 0 0 0 0 0 0 0 0 0 0 0 0 0 0 0 0 127 0" result="hardAlpha"/>
<feOffset dx="11" dy="-4"/>
<feGaussianBlur stdDeviation="5"/>
<feComposite in2="hardAlpha" operator="arithmetic" k2="-1" k3="1"/>
<feColorMatrix type="matrix" values="0 0 0 0 0 0 0 0 0 0 0 0 0 0 0 0 0 0 0.25 0"/>
<feBlend mode="normal" in2="shape" result="effect2_innerShadow_472_1158"/>
</filter>
<filter id="filter3_di_472_1158" x="24.4222" y="148.363" width="58.9636" height="60.7695" filterUnits="userSpaceOnUse" color-interpolation-filters="sRGB">
<feFlood flood-opacity="0" result="BackgroundImageFix"/>
<feColorMatrix in="SourceAlpha" type="matrix" values="0 0 0 0 0 0 0 0 0 0 0 0 0 0 0 0 0 0 127 0" result="hardAlpha"/>
<feOffset dx="-3" dy="-1"/>
<feGaussianBlur stdDeviation="5"/>
<feComposite in2="hardAlpha" operator="out"/>
<feColorMatrix type="matrix" values="0 0 0 0 0 0 0 0 0 0 0 0 0 0 0 0 0 0 0.45 0"/>
<feBlend mode="normal" in2="BackgroundImageFix" result="effect1_dropShadow_472_1158"/>
<feBlend mode="normal" in="SourceGraphic" in2="effect1_dropShadow_472_1158" result="shape"/>
<feColorMatrix in="SourceAlpha" type="matrix" values="0 0 0 0 0 0 0 0 0 0 0 0 0 0 0 0 0 0 127 0" result="hardAlpha"/>
<feOffset dx="-3" dy="-6"/>
<feGaussianBlur stdDeviation="5"/>
<feComposite in2="hardAlpha" operator="arithmetic" k2="-1" k3="1"/>
<feColorMatrix type="matrix" values="0 0 0 0 0 0 0 0 0 0 0 0 0 0 0 0 0 0 0.51 0"/>
<feBlend mode="normal" in2="shape" result="effect2_innerShadow_472_1158"/>
</filter>
<filter id="filter4_di_472_1158" x="47" y="165" width="19" height="15" filterUnits="userSpaceOnUse" color-interpolation-filters="sRGB">
<feFlood flood-opacity="0" result="BackgroundImageFix"/>
<feColorMatrix in="SourceAlpha" type="matrix" values="0 0 0 0 0 0 0 0 0 0 0 0 0 0 0 0 0 0 127 0" result="hardAlpha"/>
<feOffset dx="1" dy="1"/>
<feGaussianBlur stdDeviation="1"/>
<feComposite in2="hardAlpha" operator="out"/>
<feColorMatrix type="matrix" values="0 0 0 0 0 0 0 0 0 0 0 0 0 0 0 0 0 0 0.43 0"/>
<feBlend mode="normal" in2="BackgroundImageFix" result="effect1_dropShadow_472_1158"/>
<feBlend mode="normal" in="SourceGraphic" in2="effect1_dropShadow_472_1158" result="shape"/>
<feColorMatrix in="SourceAlpha" type="matrix" values="0 0 0 0 0 0 0 0 0 0 0 0 0 0 0 0 0 0 127 0" result="hardAlpha"/>
<feOffset dx="11" dy="-4"/>
<feGaussianBlur stdDeviation="5"/>
<feComposite in2="hardAlpha" operator="arithmetic" k2="-1" k3="1"/>
<feColorMatrix type="matrix" values="0 0 0 0 0 0 0 0 0 0 0 0 0 0 0 0 0 0 0.25 0"/>
<feBlend mode="normal" in2="shape" result="effect2_innerShadow_472_1158"/>
</filter>
<filter id="filter5_dii_472_1158" x="60" y="188.2" width="7" height="7" filterUnits="userSpaceOnUse" color-interpolation-filters="sRGB">
<feFlood flood-opacity="0" result="BackgroundImageFix"/>
<feColorMatrix in="SourceAlpha" type="matrix" values="0 0 0 0 0 0 0 0 0 0 0 0 0 0 0 0 0 0 127 0" result="hardAlpha"/>
<feOffset dx="1" dy="0.2"/>
<feGaussianBlur stdDeviation="1"/>
<feComposite in2="hardAlpha" operator="out"/>
<feColorMatrix type="matrix" values="0 0 0 0 0 0 0 0 0 0 0 0 0 0 0 0 0 0 0.25 0"/>
<feBlend mode="normal" in2="BackgroundImageFix" result="effect1_dropShadow_472_1158"/>
<feBlend mode="normal" in="SourceGraphic" in2="effect1_dropShadow_472_1158" result="shape"/>
<feColorMatrix in="SourceAlpha" type="matrix" values="0 0 0 0 0 0 0 0 0 0 0 0 0 0 0 0 0 0 127 0" result="hardAlpha"/>
<feOffset/>
<feGaussianBlur stdDeviation="0.1"/>
<feComposite in2="hardAlpha" operator="arithmetic" k2="-1" k3="1"/>
<feColorMatrix type="matrix" values="0 0 0 0 0 0 0 0 0 0 0 0 0 0 0 0 0 0 0.67 0"/>
<feBlend mode="normal" in2="shape" result="effect2_innerShadow_472_1158"/>
<feColorMatrix in="SourceAlpha" type="matrix" values="0 0 0 0 0 0 0 0 0 0 0 0 0 0 0 0 0 0 127 0" result="hardAlpha"/>
<feOffset dx="-1" dy="-1"/>
<feGaussianBlur stdDeviation="1"/>
<feComposite in2="hardAlpha" operator="arithmetic" k2="-1" k3="1"/>
<feColorMatrix type="matrix" values="0 0 0 0 0 0 0 0 0 0 0 0 0 0 0 0 0 0 0.41 0"/>
<feBlend mode="normal" in2="effect2_innerShadow_472_1158" result="effect3_innerShadow_472_1158"/>
</filter>
<filter id="filter6_dii_472_1158" x="65" y="184.2" width="7" height="7" filterUnits="userSpaceOnUse" color-interpolation-filters="sRGB">
<feFlood flood-opacity="0" result="BackgroundImageFix"/>
<feColorMatrix in="SourceAlpha" type="matrix" values="0 0 0 0 0 0 0 0 0 0 0 0 0 0 0 0 0 0 127 0" result="hardAlpha"/>
<feOffset dx="1" dy="0.2"/>
<feGaussianBlur stdDeviation="1"/>
<feComposite in2="hardAlpha" operator="out"/>
<feColorMatrix type="matrix" values="0 0 0 0 0 0 0 0 0 0 0 0 0 0 0 0 0 0 0.25 0"/>
<feBlend mode="normal" in2="BackgroundImageFix" result="effect1_dropShadow_472_1158"/>
<feBlend mode="normal" in="SourceGraphic" in2="effect1_dropShadow_472_1158" result="shape"/>
<feColorMatrix in="SourceAlpha" type="matrix" values="0 0 0 0 0 0 0 0 0 0 0 0 0 0 0 0 0 0 127 0" result="hardAlpha"/>
<feOffset/>
<feGaussianBlur stdDeviation="0.1"/>
<feComposite in2="hardAlpha" operator="arithmetic" k2="-1" k3="1"/>
<feColorMatrix type="matrix" values="0 0 0 0 0 0 0 0 0 0 0 0 0 0 0 0 0 0 0.67 0"/>
<feBlend mode="normal" in2="shape" result="effect2_innerShadow_472_1158"/>
<feColorMatrix in="SourceAlpha" type="matrix" values="0 0 0 0 0 0 0 0 0 0 0 0 0 0 0 0 0 0 127 0" result="hardAlpha"/>
<feOffset dx="-1" dy="-1"/>
<feGaussianBlur stdDeviation="1"/>
<feComposite in2="hardAlpha" operator="arithmetic" k2="-1" k3="1"/>
<feColorMatrix type="matrix" values="0 0 0 0 0 0 0 0 0 0 0 0 0 0 0 0 0 0 0.41 0"/>
<feBlend mode="normal" in2="effect2_innerShadow_472_1158" result="effect3_innerShadow_472_1158"/>
</filter>
<linearGradient id="paint0_linear_472_1158" x1="207" y1="108" x2="-12" y2="151" gradientUnits="userSpaceOnUse">
<stop stop-color="#373737"/>
<stop offset="1" stop-color="#313131"/>
</linearGradient>
<linearGradient id="paint1_linear_472_1158" x1="196.295" y1="98.085" x2="164.665" y2="64.6701" gradientUnits="userSpaceOnUse">
<stop stop-color="#161616" stop-opacity="0"/>
<stop offset="0.5" stop-color="white" stop-opacity="0.3"/>
<stop offset="1" stop-color="#161616" stop-opacity="0"/>
</linearGradient>
<linearGradient id="paint2_linear_472_1158" x1="28" y1="11" x2="28" y2="45" gradientUnits="userSpaceOnUse">
<stop stop-color="#E7E7E7"/>
<stop offset="1" stop-color="#666666"/>
</linearGradient>
<linearGradient id="paint3_linear_472_1158" x1="59" y1="176.5" x2="52.7934" y2="197.066" gradientUnits="userSpaceOnUse">
<stop stop-color="#D4D4D4"/>
<stop offset="1" stop-color="#505050"/>
</linearGradient>
<linearGradient id="paint4_linear_472_1158" x1="52" y1="169" x2="52" y2="177" gradientUnits="userSpaceOnUse">
<stop stop-color="#E7E7E7"/>
<stop offset="1" stop-color="#666666"/>
</linearGradient>
<linearGradient id="paint5_linear_472_1158" x1="53.2126" y1="171.343" x2="51.7668" y2="170.915" gradientUnits="userSpaceOnUse">
<stop stop-color="#8F8F8F"/>
<stop offset="0.5" stop-color="white"/>
<stop offset="1" stop-color="#8D8D8D"/>
</linearGradient>
<linearGradient id="paint6_linear_472_1158" x1="22.4014" y1="20.2893" x2="18.9056" y2="26.0052" gradientUnits="userSpaceOnUse">
<stop stop-color="#8F8F8F" stop-opacity="0"/>
<stop offset="0.5" stop-color="white"/>
<stop offset="1" stop-color="#8D8D8D" stop-opacity="0"/>
</linearGradient>
<linearGradient id="paint7_linear_472_1158" x1="50.199" y1="171.934" x2="49.8796" y2="173.04" gradientUnits="userSpaceOnUse">
<stop stop-color="#8F8F8F"/>
<stop offset="0.5" stop-color="white"/>
<stop offset="1" stop-color="#8D8D8D"/>
</linearGradient>
</defs>
</svg>
