<svg width="131" height="45" viewBox="0 0 131 45" fill="none" xmlns="http://www.w3.org/2000/svg">
<g clip-path="url(#clip0_435_894)">
<path fill-rule="evenodd" clip-rule="evenodd" d="M22.1953 7.27539C9.35503 11.5831 14.3595 28.6368 15.8945 38.5582C15.5815 40.0637 14.8279 41.4594 13.7075 42.5625C12.2018 44.0447 10.1593 44.8779 8.0299 44.8779C5.90038 44.8779 3.85805 44.0447 2.35226 42.5625C0.846524 41.0801 0 39.0697 0 36.9733C0.00010935 34.8772 0.846562 32.8664 2.35226 31.3842C3.85803 29.902 5.90053 29.0696 8.0299 29.0696C9.26856 29.0696 10.4383 29.3408 11.4706 29.8374L6.73303 8.80103L22.1953 7.27539ZM8.13416 34.7381C6.93569 34.7381 5.96414 35.7075 5.96414 36.9031C5.96414 38.0989 6.93569 39.0681 8.13416 39.0681C9.33263 39.0681 10.3042 38.0989 10.3042 36.9031C10.3042 35.7075 9.33263 34.7381 8.13416 34.7381Z" fill="#D9D6C3"/>
<path fill-rule="evenodd" clip-rule="evenodd" d="M30.1144 5.625C29.7802 6.39891 27.4192 28.9918 30.8521 36.2993C30.6109 37.4529 30.0299 38.5223 29.1663 39.3673C28.0056 40.5031 26.4312 41.1413 24.7898 41.1413C23.1483 41.1413 21.5741 40.5031 20.4133 39.3673C19.2526 38.2317 18.6001 36.6913 18.6001 35.0851C18.6002 33.479 19.2527 31.9385 20.4133 30.8029C21.5741 29.6674 23.1485 29.0295 24.7898 29.0295C25.7446 29.0295 25.5855 29.0295 25.6858 29.0295L22.4484 6.52262L30.1144 5.625ZM24.8702 33.3726C23.9464 33.3726 23.1975 34.1153 23.1975 35.0314C23.1975 35.9475 23.9464 36.6901 24.8702 36.6901C25.7939 36.6901 26.5429 35.9475 26.5429 35.0314C26.5429 34.1153 25.7939 33.3726 24.8702 33.3726Z" fill="#D9D6C3"/>
<path d="M6.32827 6.91641C6.1336 5.16163 31.2493 1.97105 30.8164 3.32666C30.3579 4.76262 29.991 6.2882 29.991 6.2882L6.87857 9.51895C6.87857 9.51895 6.44275 7.94823 6.32827 6.91641Z" fill="#D9D6C3"/>
<path d="M9.08 14.5441C9.04859 14.3302 9.01629 14.1165 8.98311 13.9029C8.68437 11.9812 8.31323 10.0758 7.86971 8.18661C7.8428 8.07201 7.81562 7.95748 7.7882 7.843L7.5692 8.16732C9.39935 7.83816 11.218 7.44587 13.025 6.99044C13.2388 6.93657 13.4524 6.88181 13.6658 6.82617C13.4459 6.84647 13.2262 6.86767 13.0066 6.88973C11.1503 7.07631 9.30562 7.32603 7.47245 7.63887L7.18799 7.69004L7.25346 7.96321C7.27983 8.07792 7.30647 8.19257 7.33338 8.30717C7.77691 10.1963 8.29285 12.0692 8.88119 13.9259C8.94657 14.1321 9.01284 14.3382 9.08 14.5441Z" fill="#003A63"/>
<path d="M25.7721 19.3946C25.7577 19.1917 25.7424 18.9891 25.7262 18.7865C25.5874 17.0512 25.3819 15.3262 25.1099 13.6114L25.1108 13.6166C25.0988 13.5299 25.0868 13.4431 25.0744 13.3564C24.818 11.551 24.4881 9.75548 24.0844 7.96983C24.0397 7.77144 23.9939 7.57315 23.9473 7.375C23.9576 7.57805 23.9689 7.78099 23.9809 7.98377C24.0902 9.80903 24.273 11.6244 24.5295 13.4298C24.5417 13.5165 24.5543 13.6032 24.5668 13.6898L24.5677 13.6951C24.8529 15.4078 25.2047 17.1103 25.623 18.8025C25.6718 19 25.7214 19.1973 25.7721 19.3946Z" fill="#003A63"/>
</g>
<path d="M9.2963 32.0438C4.97656 31.6383 2.2082 34.0904 3.07407 37.8853H1L5.66667 41.7358V37.8415L5.14815 37.8853C4.41663 34.9753 6.34005 33.2989 9.2963 33.991V32.0438ZM10.3333 32V35.8943L10.8519 35.9381C11.9631 39.2036 10.0023 40.9004 6.7037 39.8325V41.7796C11.1471 42.7833 14.0651 40.2763 12.9259 35.9381H15L10.3333 32Z" fill="#080A0C"/>
<path d="M39.5 3.5V17H48.5V21.5H35V3.5H39.5ZM63.98 3.5V21.5H50.48V3.5H63.98ZM54.98 8V17H59.48V8H54.98ZM79.46 3.5V21.5H65.96V3.5H79.46ZM70.46 8V17H74.96V8H70.46ZM94.94 3.5V17H85.94V21.5H81.44V3.5H94.94ZM85.94 8V12.5H90.44V8H85.94ZM110.42 3.5V8H105.92V12.5H101.42V17H110.42V21.5H96.92V3.5H110.42ZM125.9 3.5V12.5H121.4V8H116.9V12.5H121.4V17H116.9V21.5H112.4V3.5H125.9ZM125.9 17V21.5H121.4V17H125.9Z" fill="white"/>
<path d="M48.5 24.5V38H39.5V42.5H35V24.5H48.5ZM39.5 29V33.5H44V29H39.5ZM54.98 24.5V38H63.98V42.5H50.48V24.5H54.98ZM79.46 24.5V42.5H74.96V38H70.46V42.5H65.96V24.5H79.46ZM70.46 29V33.5H74.96V29H70.46ZM85.94 24.5V33.5H81.44V24.5H85.94ZM94.94 24.5V33.5H90.44V24.5H94.94ZM90.44 33.5V42.5H85.94V33.5H90.44ZM110.42 24.5V29H105.92V33.5H101.42V38H110.42V42.5H96.92V24.5H110.42ZM125.9 24.5V33.5H121.4V29H116.9V33.5H121.4V38H116.9V42.5H112.4V24.5H125.9ZM125.9 38V42.5H121.4V38H125.9Z" fill="white"/>
<rect x="121" y="17" width="5" height="5" fill="#D9D6C3"/>
<defs>
<clipPath id="clip0_435_894">
<rect width="31" height="42" fill="white" transform="translate(0 3)"/>
</clipPath>
</defs>
</svg>
