<svg width="35" height="48" viewBox="0 0 35 48" fill="none" xmlns="http://www.w3.org/2000/svg">
<g clip-path="url(#clip0_402_963)">
<path fill-rule="evenodd" clip-rule="evenodd" d="M25.0592 4.88672C10.5621 9.8098 16.2124 29.2998 17.9454 40.6385C17.592 42.3591 16.7412 43.9541 15.4763 45.2149C13.7762 46.9088 11.4702 47.861 9.06601 47.861C6.66172 47.861 4.35586 46.9088 2.65578 45.2149C0.955753 43.5207 0 41.2231 0 38.8272C0.00012346 36.4317 0.955796 34.1336 2.65578 32.4397C4.35584 30.7457 6.66189 29.7943 9.06601 29.7943C10.4645 29.7943 11.7852 30.1043 12.9506 30.6719L7.60181 6.63031L25.0592 4.88672ZM9.18373 36.2727C7.83062 36.2727 6.73371 37.3806 6.73371 38.747C6.73371 40.1135 7.83062 41.2212 9.18373 41.2212C10.5368 41.2212 11.6338 40.1135 11.6338 38.747C11.6338 37.3806 10.5368 36.2727 9.18373 36.2727Z" fill="#55DF69"/>
<path fill-rule="evenodd" clip-rule="evenodd" d="M33.861 3.75781C31.9971 10.2194 31.3433 22.1522 32.6791 30.8394C32.4067 32.1578 31.7508 33.3799 30.7758 34.3457C29.4653 35.6437 27.6877 36.3731 25.8346 36.3731C23.9813 36.3731 22.2039 35.6437 20.8934 34.3457C19.5829 33.0478 18.8462 31.2874 18.8462 29.4517C18.8463 27.6162 19.583 25.8556 20.8934 24.5578C22.2039 23.2601 23.9815 22.5311 25.8346 22.5311C26.9126 22.5311 27.9307 22.7684 28.8291 23.2035L24.7059 4.78345L33.861 3.75781ZM25.9253 27.4946C24.8823 27.4946 24.0368 28.3434 24.0368 29.3904C24.0368 30.4373 24.8823 31.286 25.9253 31.286C26.9683 31.286 27.8139 30.4373 27.8139 29.3904C27.8139 28.3434 26.9683 27.4946 25.9253 27.4946Z" fill="#55DF69"/>
<path d="M7.14507 4.4759C6.92527 2.47044 35.2818 -1.17594 34.793 0.373321C34.2752 2.01442 33.861 3.75795 33.861 3.75795L7.76637 7.45023C7.76637 7.45023 7.27432 5.65512 7.14507 4.4759Z" fill="#55DF69"/>
<path d="M10.2514 13.1936C10.2159 12.9491 10.1794 12.7048 10.142 12.4608C9.8047 10.2645 9.38567 8.08689 8.88492 5.92784C8.85454 5.79686 8.82385 5.66597 8.79289 5.53514L8.54563 5.90579C10.6119 5.5296 12.6652 5.08127 14.7054 4.56078C14.9468 4.49922 15.1879 4.43664 15.4289 4.37305C15.1806 4.39625 14.9325 4.42047 14.6846 4.44568C12.5888 4.65891 10.5061 4.94431 8.43641 5.30185L8.11523 5.36033L8.18915 5.67251C8.21893 5.80361 8.249 5.93465 8.27938 6.06562C8.78015 8.22468 9.36266 10.3651 10.0269 12.487C10.1007 12.7227 10.1756 12.9583 10.2514 13.1936Z" fill="#2D933B"/>
<path d="M29.2012 18.3217C29.1673 18.0918 29.1323 17.8622 29.0962 17.6328C28.7881 15.6674 28.4058 13.7195 27.9495 11.789L27.951 11.7949C27.9298 11.6971 27.9087 11.5993 27.8872 11.5016C27.4405 9.46646 26.9119 7.44899 26.3012 5.44915C26.2335 5.22696 26.1645 5.00497 26.0947 4.7832C26.1241 5.01369 26.1546 5.24396 26.1859 5.47399C26.4688 7.54441 26.8335 9.59719 27.2802 11.6323C27.3015 11.73 27.3232 11.8277 27.345 11.9254L27.3464 11.9313C27.8174 13.8582 28.3625 15.7678 28.9815 17.6599C29.0538 17.8807 29.1269 18.1013 29.2012 18.3217Z" fill="#2D933B"/>
</g>
<defs>
<clipPath id="clip0_402_963">
<rect width="35" height="48" fill="white"/>
</clipPath>
</defs>
</svg>
