<svg width="169" height="40" viewBox="0 0 169 40" fill="none" xmlns="http://www.w3.org/2000/svg">
<path d="M20.3316 38.5437V24.228H39.4171C41.3611 24.228 42.789 24.6302 43.7007 25.4346C44.6124 26.2254 45.0683 27.432 45.0683 29.0545C45.0683 30.1452 44.8672 31.1132 44.465 31.9585C44.0761 32.8038 43.4661 33.4719 42.6348 33.9627C41.8036 34.4399 40.731 34.6785 39.4171 34.6785H26.566V38.5437H20.3316ZM37.7277 28.5841H26.566V30.3838H37.7277C37.9825 30.3838 38.1836 30.302 38.3311 30.1384C38.4785 29.9748 38.5523 29.7566 38.5523 29.4839C38.5523 29.1976 38.4718 28.9795 38.3109 28.8295C38.1635 28.6659 37.9691 28.5841 37.7277 28.5841Z" fill="white"/>
<path d="M46.5114 38.5437V24.228H52.7459V33.7991H71.4492V38.5437H46.5114Z" fill="white"/>
<path d="M71.6398 38.5437L80.4284 24.228H87.8092L96.5776 38.5437H89.8806L88.6739 36.3146H79.6038L78.3368 38.5437H71.6398ZM82.2786 31.5699L81.5948 32.797H86.7634L86.0997 31.5699L84.4305 28.0933H84.0283L82.2786 31.5699Z" fill="white"/>
<path d="M100.495 38.5437V33.3901L91.143 24.228H98.9261L103.612 28.9522L108.298 24.228H116.081L106.729 33.3901V38.5437H100.495Z" fill="white"/>
<path d="M117.175 38.5437V24.228H142.113V28.3591H123.41V29.6271H139.941V33.1447H123.41V34.4126H142.113V38.5437H117.175Z" fill="white"/>
<path d="M144.062 38.5437V24.228H164.113C165.548 24.228 166.647 24.5552 167.411 25.2097C168.175 25.8505 168.558 26.7367 168.558 27.8683C168.558 28.7409 168.296 29.4498 167.773 29.9952C167.25 30.5406 166.432 30.9155 165.32 31.12V31.529C166.54 31.6381 167.458 31.9926 168.075 32.5925C168.692 33.1787 169 33.9422 169 34.883V38.5437H162.484V35.0875C162.484 34.8421 162.41 34.6444 162.263 34.4944C162.115 34.3445 161.914 34.2695 161.659 34.2695H150.297V38.5437H144.062ZM150.297 30.3838H161.257C161.512 30.3838 161.713 30.302 161.861 30.1384C162.008 29.9748 162.082 29.7566 162.082 29.4839C162.082 29.184 162.001 28.959 161.84 28.809C161.68 28.6591 161.485 28.5841 161.257 28.5841H150.297V30.3838Z" fill="white"/>
<path d="M32.1569 20.1242C29.6095 20.1242 27.3973 19.831 25.5203 19.2448C23.6566 18.6449 22.2153 17.7928 21.1964 16.6884C20.1908 15.584 19.688 14.2752 19.688 12.7618V12.5164C19.688 10.9894 20.1908 9.68051 21.1964 8.58979C22.2153 7.48544 23.6566 6.64013 25.5203 6.05386C27.3973 5.45397 29.6095 5.15402 32.1569 5.15402C34.7178 5.15402 36.93 5.45397 38.7936 6.05386C40.6572 6.64013 42.0918 7.48544 43.0974 8.58979C44.1164 9.68051 44.6258 10.9894 44.6258 12.5164V12.7618C44.6258 14.2752 44.1164 15.584 43.0974 16.6884C42.0918 17.7928 40.6572 18.6449 38.7936 19.2448C36.93 19.831 34.7178 20.1242 32.1569 20.1242ZM32.1569 15.4204C33.9938 15.4204 35.4418 15.1887 36.5009 14.7251C37.5735 14.2479 38.1098 13.5935 38.1098 12.7618V12.5164C38.1098 11.6847 37.5735 11.0371 36.5009 10.5735C35.4418 10.0963 33.9938 9.85775 32.1569 9.85775C30.3335 9.85775 28.8855 10.0963 27.8129 10.5735C26.7403 11.0371 26.204 11.6847 26.204 12.5164V12.7618C26.204 13.5935 26.7403 14.2479 27.8129 14.7251C28.8855 15.1887 30.3335 15.4204 32.1569 15.4204Z" fill="white"/>
<path d="M46.2365 19.797V5.48123H52.3905L64.9398 13.3753V5.48123H71.1743V19.797H65.0203L52.4709 11.9029V19.797H46.2365Z" fill="white"/>
<path d="M73.5161 19.797V5.48123H98.4539V9.61234H79.7506V10.8803H96.2819V14.3979H79.7506V15.6658H98.4539V19.797H73.5161Z" fill="white"/>
<path fill-rule="evenodd" clip-rule="evenodd" d="M19.337 4.88891C13.1576 10.4007 13.8625 24.0187 15.3444 33.7813C15.0422 35.2628 14.3147 36.6362 13.2331 37.7216C11.7795 39.1801 9.80772 39.9999 7.75198 40C5.69617 40 3.72453 39.1802 2.27085 37.7216C0.817226 36.263 0 34.2846 0 32.2219C0.000105566 30.1592 0.817262 28.1807 2.27085 26.7221C3.7245 25.2637 5.69631 24.4445 7.75198 24.4445C8.94777 24.4446 10.077 24.7113 11.0736 25.2001V6.66639L19.337 4.88891ZM7.85264 30.0225C6.69565 30.0225 5.75773 30.9762 5.75773 32.1528C5.75773 33.3293 6.69565 34.2831 7.85264 34.2831C9.00962 34.2831 9.94755 33.3293 9.94755 32.1528C9.94755 30.9762 9.00962 30.0225 7.85264 30.0225Z" fill="#55DF69"/>
<path d="M42.0799 2.24099C39.7238 1.95112 37.0995 1.71416 34.458 1.63851L42.0799 0V2.24099Z" fill="#55DF69"/>
</svg>
