<svg width="28" height="24" viewBox="0 0 28 24" fill="none" xmlns="http://www.w3.org/2000/svg">
<path d="M10.2667 0.96C10.2667 0.705392 10.365 0.461212 10.54 0.281177C10.7151 0.101143 10.9525 0 11.2 0H16.8C17.0475 0 17.2849 0.101143 17.46 0.281177C17.635 0.461212 17.7333 0.705392 17.7333 0.96C17.7333 1.21461 17.635 1.45879 17.46 1.63882C17.2849 1.81886 17.0475 1.92 16.8 1.92H11.2C10.9525 1.92 10.7151 1.81886 10.54 1.63882C10.365 1.45879 10.2667 1.21461 10.2667 0.96ZM28 11.52C28 11.7746 27.9017 12.0188 27.7266 12.1988C27.5516 12.3789 27.3142 12.48 27.0667 12.48H26.1333V22.08C26.1333 22.5892 25.9367 23.0776 25.5866 23.4376C25.2365 23.7977 24.7617 24 24.2667 24H21.4667C20.9716 24 20.4968 23.7977 20.1467 23.4376C19.7967 23.0776 19.6 22.5892 19.6 22.08V21.12H8.4V22.08C8.4 22.5892 8.20333 23.0776 7.85327 23.4376C7.5032 23.7977 7.0284 24 6.53333 24H3.73333C3.23826 24 2.76347 23.7977 2.4134 23.4376C2.06333 23.0776 1.86667 22.5892 1.86667 22.08V12.48H0.933333C0.685798 12.48 0.448401 12.3789 0.273367 12.1988C0.098333 12.0188 0 11.7746 0 11.52C0 11.2654 0.098333 11.0212 0.273367 10.8412C0.448401 10.6611 0.685798 10.56 0.933333 10.56H2.25867L5.45417 4.8072C5.61744 4.51339 5.85332 4.26919 6.1379 4.09934C6.42248 3.92949 6.74565 3.84002 7.07467 3.84H20.9253C21.2544 3.84002 21.5775 3.92949 21.8621 4.09934C22.1467 4.26919 22.3826 4.51339 22.5458 4.8072L25.7413 10.56H27.0667C27.3142 10.56 27.5516 10.6611 27.7266 10.8412C27.9017 11.0212 28 11.2654 28 11.52ZM9.33333 15.36C9.33333 15.1054 9.235 14.8612 9.05997 14.6812C8.88493 14.5011 8.64754 14.4 8.4 14.4H5.6C5.35246 14.4 5.11507 14.5011 4.94003 14.6812C4.765 14.8612 4.66667 15.1054 4.66667 15.36C4.66667 15.6146 4.765 15.8588 4.94003 16.0388C5.11507 16.2189 5.35246 16.32 5.6 16.32H8.4C8.64754 16.32 8.88493 16.2189 9.05997 16.0388C9.235 15.8588 9.33333 15.6146 9.33333 15.36ZM23.3333 15.36C23.3333 15.1054 23.235 14.8612 23.06 14.6812C22.8849 14.5011 22.6475 14.4 22.4 14.4H19.6C19.3525 14.4 19.1151 14.5011 18.94 14.6812C18.765 14.8612 18.6667 15.1054 18.6667 15.36C18.6667 15.6146 18.765 15.8588 18.94 16.0388C19.1151 16.2189 19.3525 16.32 19.6 16.32H22.4C22.6475 16.32 22.8849 16.2189 23.06 16.0388C23.235 15.8588 23.3333 15.6146 23.3333 15.36ZM23.5912 10.56L20.9253 5.76H7.07467L4.40883 10.56H23.5912Z" fill="white"/>
</svg>
