<svg width="16" height="18" viewBox="0 0 16 18" fill="none" xmlns="http://www.w3.org/2000/svg">
<path d="M2 15.9429H5V10.8C5 10.5086 5.096 10.2645 5.288 10.0677C5.48 9.87086 5.71733 9.77211 6 9.77143H10C10.2833 9.77143 10.521 9.87017 10.713 10.0677C10.905 10.2651 11.0007 10.5093 11 10.8V15.9429H14H10.713C10.7201 11.4737 9.98648 10.5942 8 10.5C6.55873 11.4388 5.96497 12.9361 5 16L2 15.9429ZM0 15.9429V6.68571C0 6.36 0.0709998 6.05143 0.213 5.76C0.355 5.46857 0.550667 5.22857 0.8 5.04L6.8 0.411429C7.15 0.137143 7.55 0 8 0C8.45 0 8.85 0.137143 9.2 0.411429L15.2 5.04C15.45 5.22857 15.646 5.46857 15.788 5.76C15.93 6.05143 16.0007 6.36 16 6.68571V15.9429C16 16.5086 15.804 16.993 15.412 17.3962C15.02 17.7994 14.5493 18.0007 14 18H10C9.71667 18 9.47933 17.9013 9.288 17.7038C9.09666 17.5063 9.00066 17.2622 9 16.9714V11.8286H7V16.9714C7 17.2629 6.904 17.5073 6.712 17.7048C6.52 17.9023 6.28267 18.0007 6 18H2C1.45 18 0.979333 17.7987 0.588 17.3962C0.196666 16.9937 0.000666666 16.5093 0 15.9429Z" fill="#55DF69"/>
</svg>
