<svg width="18" height="14" viewBox="0 0 18 14" fill="none" xmlns="http://www.w3.org/2000/svg">
<path d="M2.49512 12.793H2.49121V1.34766L2.69531 1.03711H2.7041V12.4824L2.7002 12.4805L2.70312 12.4824L2.49902 12.793M2.49512 12.793L2.49805 12.7949M2.49512 12.793L2.49805 12.7949M2.49512 12.793H2.49902M2.49805 12.7949L2.5 12.793H2.49902M2.49805 12.7949L2.49902 12.793M16.6162 12.3369L16.6123 12.3389L12.5879 1.27051L12.5762 1.24023L12.5908 1.26953L12.5898 1.26562L13.0479 1.0332L13.0195 1.04785L13.0459 1.03809L13.0537 1.03613L17.0684 12.1035L17.0791 12.1318L17.0674 12.1084L16.6182 12.3408M16.6162 12.3369L16.6182 12.3408M16.6162 12.3369L16.6182 12.3408M16.6162 12.3369L16.6191 12.335L16.6445 12.3271L16.6182 12.3408M17.9941 12.96L14.6299 13.9941L9.91602 1.03906L13.2803 0.00488281L17.9941 12.96ZM8.72852 0.209961V13.9336H4.99316V0.209961H8.72852ZM3.73828 0.209961V13.9336H0.00390625V0.209961H3.73828ZM7.48047 12.793H7.48828V1.34961H7.48047V12.793ZM2.69629 12.4785L2.49902 12.7783V1.35059L2.69629 1.04883V12.4785ZM17.0596 12.1025L16.6182 12.3311L12.5957 1.27148L13.0469 1.04199L17.0596 12.1025Z" fill="#929292" stroke="#929292" stroke-width="0.0078125"/>
</svg>
