<svg width="17" height="17" viewBox="0 0 17 17" fill="none" xmlns="http://www.w3.org/2000/svg">
<path d="M16.575 0.246523C16.8442 0.462582 17 0.788443 17 1.13201V11.8996C17 13.4651 15.4771 14.7331 13.6 14.7331C11.7229 14.7331 10.2 13.4651 10.2 11.8996C10.2 10.334 11.7229 9.06601 13.6 9.06601C13.9967 9.06601 14.3792 9.12268 14.7333 9.22894V5.09547L6.8 6.85936V14.1664C6.8 15.732 5.27708 17 3.4 17C1.52292 17 0 15.732 0 14.1664C0 12.6009 1.52292 11.3329 3.4 11.3329C3.79667 11.3329 4.17917 11.3895 4.53333 11.4958V3.39887C4.53333 2.86757 4.90167 2.40712 5.42229 2.29378L15.6223 0.0269212C15.9587 -0.04746 16.3094 0.034005 16.5785 0.250065L16.575 0.246523Z" fill="#929292"/>
</svg>
